<svg version="1.1" viewBox="0.0 0.0 600.0 371.0" fill="none" stroke="none" stroke-linecap="square" stroke-miterlimit="10" width="600" height="371" xmlns:xlink="http://www.w3.org/1999/xlink" xmlns="http://www.w3.org/2000/svg"><path fill="#ffffff" d="M0 0L600.0 0L600.0 371.0L0 371.0L0 0Z" fill-rule="nonzero"/><path stroke="#333333" stroke-width="1.0" stroke-linecap="butt" d="M45.5 344.5L581.5 344.5" fill-rule="nonzero"/><path stroke="#cccccc" stroke-width="1.0" stroke-linecap="butt" d="M45.5 259.5L581.5 259.5" fill-rule="nonzero"/><path stroke="#cccccc" stroke-width="1.0" stroke-linecap="butt" d="M45.5 174.5L581.5 174.5" fill-rule="nonzero"/><path stroke="#cccccc" stroke-width="1.0" stroke-linecap="butt" d="M45.5 89.5L581.5 89.5" fill-rule="nonzero"/><clipPath id="id_0"><path d="M45.55 89.78333L581.45 89.78333L581.45 344.95L45.55 344.95L45.55 89.78333Z" clip-rule="nonzero"/></clipPath><path stroke="#4285f4" stroke-width="2.0" stroke-linecap="butt" clip-path="url(#id_0)" d="M62.296875 249.56465L95.79063 241.80446L129.28438 238.36751L162.77812 201.32758L196.27188 252.02522L229.76562 286.96692L263.25937 294.0418L296.7531 253.06784L330.2469 136.64458L363.74063 214.40173L397.23438 300.67944L430.72812 311.45096L464.22186 321.65762L497.71564 233.63698L531.20935 309.2037L564.7031 183.16904" fill-rule="nonzero"/><path stroke="#db4437" stroke-width="2.0" stroke-linecap="butt" clip-path="url(#id_0)" d="M62.296875 118.732956L95.79063 114.69177L129.28438 98.59896L162.77812 215.72162L196.27188 156.12845L229.76562 299.09137L263.25937 317.28815L296.7531 311.13733L330.2469 334.9665L363.74063 341.41098L397.23438 339.57065L430.72812 342.5814L464.22186 343.29254L497.71564 341.14505L531.20935 343.44922L564.7031 344.19427" fill-rule="nonzero"/><path fill="#000000" fill-opacity="0.0" clip-path="url(#id_0)" d="M65.296875 249.56465C65.296875 251.2215 63.953728 252.56465 62.296875 252.56465C60.640022 252.56465 59.296875 251.2215 59.296875 249.56465C59.296875 247.90779 60.640022 246.56465 62.296875 246.56465C63.953728 246.56465 65.296875 247.90779 65.296875 249.56465Z" fill-rule="nonzero"/><path fill="#000000" fill-opacity="0.0" clip-path="url(#id_0)" d="M98.79063 241.80446C98.79063 243.4613 97.44748 244.80446 95.79063 244.80446C94.13377 244.80446 92.79063 243.4613 92.79063 241.80446C92.79063 240.1476 94.13377 238.80446 95.79063 238.80446C97.44748 238.80446 98.79063 240.1476 98.79063 241.80446Z" fill-rule="nonzero"/><path fill="#000000" fill-opacity="0.0" clip-path="url(#id_0)" d="M132.28438 238.36751C132.28438 240.02437 130.94122 241.36751 129.28438 241.36751C127.62752 241.36751 126.28438 240.02437 126.28438 238.36751C126.28438 236.71065 127.62752 235.36751 129.28438 235.36751C130.94122 235.36751 132.28438 236.71065 132.28438 238.36751Z" fill-rule="nonzero"/><path fill="#000000" fill-opacity="0.0" clip-path="url(#id_0)" d="M165.77812 201.32758C165.77812 202.98444 164.43498 204.32758 162.77812 204.32758C161.12128 204.32758 159.77812 202.98444 159.77812 201.32758C159.77812 199.67072 161.12128 198.32758 162.77812 198.32758C164.43498 198.32758 165.77812 199.67072 165.77812 201.32758Z" fill-rule="nonzero"/><path fill="#000000" fill-opacity="0.0" clip-path="url(#id_0)" d="M199.27188 252.02522C199.27188 253.68208 197.92873 255.02522 196.27188 255.02522C194.61502 255.02522 193.27188 253.68208 193.27188 252.02522C193.27188 250.36838 194.61502 249.02522 196.27188 249.02522C197.92873 249.02522 199.27188 250.36838 199.27188 252.02522Z" fill-rule="nonzero"/><path fill="#000000" fill-opacity="0.0" clip-path="url(#id_0)" d="M232.76562 286.96692C232.76562 288.62378 231.42249 289.96692 229.76562 289.96692C228.10876 289.96692 226.76562 288.62378 226.76562 286.96692C226.76562 285.3101 228.10876 283.96692 229.76562 283.96692C231.42249 283.96692 232.76562 285.3101 232.76562 286.96692Z" fill-rule="nonzero"/><path fill="#000000" fill-opacity="0.0" clip-path="url(#id_0)" d="M266.25937 294.0418C266.25937 295.69867 264.91623 297.0418 263.25937 297.0418C261.6025 297.0418 260.25937 295.69867 260.25937 294.0418C260.25937 292.38498 261.6025 291.0418 263.25937 291.0418C264.91623 291.0418 266.25937 292.38498 266.25937 294.0418Z" fill-rule="nonzero"/><path fill="#000000" fill-opacity="0.0" clip-path="url(#id_0)" d="M299.7531 253.06784C299.7531 254.7247 298.40997 256.06784 296.7531 256.06784C295.09628 256.06784 293.7531 254.7247 293.7531 253.06784C293.7531 251.41098 295.09628 250.06784 296.7531 250.06784C298.40997 250.06784 299.7531 251.41098 299.7531 253.06784Z" fill-rule="nonzero"/><path fill="#000000" fill-opacity="0.0" clip-path="url(#id_0)" d="M333.2469 136.64458C333.2469 138.30142 331.90372 139.64458 330.2469 139.64458C328.59003 139.64458 327.2469 138.30142 327.2469 136.64458C327.2469 134.98772 328.59003 133.64458 330.2469 133.64458C331.90372 133.64458 333.2469 134.98772 333.2469 136.64458Z" fill-rule="nonzero"/><path fill="#000000" fill-opacity="0.0" clip-path="url(#id_0)" d="M366.74063 214.40173C366.74063 216.05858 365.3975 217.40173 363.74063 217.40173C362.08377 217.40173 360.74063 216.05858 360.74063 214.40173C360.74063 212.74487 362.08377 211.40173 363.74063 211.40173C365.3975 211.40173 366.74063 212.74487 366.74063 214.40173Z" fill-rule="nonzero"/><path fill="#000000" fill-opacity="0.0" clip-path="url(#id_0)" d="M400.23438 300.67944C400.23438 302.3363 398.89124 303.67944 397.23438 303.67944C395.5775 303.67944 394.23438 302.3363 394.23438 300.67944C394.23438 299.02258 395.5775 297.67944 397.23438 297.67944C398.89124 297.67944 400.23438 299.02258 400.23438 300.67944Z" fill-rule="nonzero"/><path fill="#000000" fill-opacity="0.0" clip-path="url(#id_0)" d="M433.72812 311.45096C433.72812 313.10782 432.38498 314.45096 430.72812 314.45096C429.07126 314.45096 427.72812 313.10782 427.72812 311.45096C427.72812 309.7941 429.07126 308.45096 430.72812 308.45096C432.38498 308.45096 433.72812 309.7941 433.72812 311.45096Z" fill-rule="nonzero"/><path fill="#000000" fill-opacity="0.0" clip-path="url(#id_0)" d="M467.22186 321.65762C467.22186 323.31448 465.87872 324.65762 464.22186 324.65762C462.56503 324.65762 461.22186 323.31448 461.22186 321.65762C461.22186 320.00076 462.56503 318.65762 464.22186 318.65762C465.87872 318.65762 467.22186 320.00076 467.22186 321.65762Z" fill-rule="nonzero"/><path fill="#000000" fill-opacity="0.0" clip-path="url(#id_0)" d="M500.71564 233.63698C500.71564 235.29382 499.37247 236.63698 497.71564 236.63698C496.05878 236.63698 494.71564 235.29382 494.71564 233.63698C494.71564 231.98012 496.05878 230.63698 497.71564 230.63698C499.37247 230.63698 500.71564 231.98012 500.71564 233.63698Z" fill-rule="nonzero"/><path fill="#000000" fill-opacity="0.0" clip-path="url(#id_0)" d="M534.20935 309.2037C534.20935 310.86057 532.8662 312.2037 531.20935 312.2037C529.5525 312.2037 528.20935 310.86057 528.20935 309.2037C528.20935 307.54684 529.5525 306.2037 531.20935 306.2037C532.8662 306.2037 534.20935 307.54684 534.20935 309.2037Z" fill-rule="nonzero"/><path fill="#000000" fill-opacity="0.0" clip-path="url(#id_0)" d="M567.7031 183.16904C567.7031 184.82588 566.36 186.16904 564.7031 186.16904C563.04626 186.16904 561.7031 184.82588 561.7031 183.16904C561.7031 181.51218 563.04626 180.16904 564.7031 180.16904C566.36 180.16904 567.7031 181.51218 567.7031 183.16904Z" fill-rule="nonzero"/><path fill="#000000" fill-opacity="0.0" clip-path="url(#id_0)" d="M65.296875 118.732956C65.296875 120.38981 63.953728 121.732956 62.296875 121.732956C60.640022 121.732956 59.296875 120.38981 59.296875 118.732956C59.296875 117.0761 60.640022 115.732956 62.296875 115.732956C63.953728 115.732956 65.296875 117.0761 65.296875 118.732956Z" fill-rule="nonzero"/><path fill="#000000" fill-opacity="0.0" clip-path="url(#id_0)" d="M98.79063 114.69177C98.79063 116.348625 97.44748 117.69177 95.79063 117.69177C94.13377 117.69177 92.79063 116.348625 92.79063 114.69177C92.79063 113.03492 94.13377 111.69177 95.79063 111.69177C97.44748 111.69177 98.79063 113.03492 98.79063 114.69177Z" fill-rule="nonzero"/><path fill="#000000" fill-opacity="0.0" clip-path="url(#id_0)" d="M132.28438 98.59896C132.28438 100.25582 130.94122 101.59896 129.28438 101.59896C127.62752 101.59896 126.28438 100.25582 126.28438 98.59896C126.28438 96.94211 127.62752 95.59896 129.28438 95.59896C130.94122 95.59896 132.28438 96.94211 132.28438 98.59896Z" fill-rule="nonzero"/><path fill="#000000" fill-opacity="0.0" clip-path="url(#id_0)" d="M165.77812 215.72162C165.77812 217.37848 164.43498 218.72162 162.77812 218.72162C161.12128 218.72162 159.77812 217.37848 159.77812 215.72162C159.77812 214.06476 161.12128 212.72162 162.77812 212.72162C164.43498 212.72162 165.77812 214.06476 165.77812 215.72162Z" fill-rule="nonzero"/><path fill="#000000" fill-opacity="0.0" clip-path="url(#id_0)" d="M199.27188 156.12845C199.27188 157.78531 197.92873 159.12845 196.27188 159.12845C194.61502 159.12845 193.27188 157.78531 193.27188 156.12845C193.27188 154.47159 194.61502 153.12845 196.27188 153.12845C197.92873 153.12845 199.27188 154.47159 199.27188 156.12845Z" fill-rule="nonzero"/><path fill="#000000" fill-opacity="0.0" clip-path="url(#id_0)" d="M232.76562 299.09137C232.76562 300.74823 231.42249 302.09137 229.76562 302.09137C228.10876 302.09137 226.76562 300.74823 226.76562 299.09137C226.76562 297.4345 228.10876 296.09137 229.76562 296.09137C231.42249 296.09137 232.76562 297.4345 232.76562 299.09137Z" fill-rule="nonzero"/><path fill="#000000" fill-opacity="0.0" clip-path="url(#id_0)" d="M266.25937 317.28815C266.25937 318.945 264.91623 320.28815 263.25937 320.28815C261.6025 320.28815 260.25937 318.945 260.25937 317.28815C260.25937 315.6313 261.6025 314.28815 263.25937 314.28815C264.91623 314.28815 266.25937 315.6313 266.25937 317.28815Z" fill-rule="nonzero"/><path fill="#000000" fill-opacity="0.0" clip-path="url(#id_0)" d="M299.7531 311.13733C299.7531 312.7942 298.40997 314.13733 296.7531 314.13733C295.09628 314.13733 293.7531 312.7942 293.7531 311.13733C293.7531 309.48047 295.09628 308.13733 296.7531 308.13733C298.40997 308.13733 299.7531 309.48047 299.7531 311.13733Z" fill-rule="nonzero"/><path fill="#000000" fill-opacity="0.0" clip-path="url(#id_0)" d="M333.2469 334.9665C333.2469 336.62335 331.90372 337.9665 330.2469 337.9665C328.59003 337.9665 327.2469 336.62335 327.2469 334.9665C327.2469 333.30963 328.59003 331.9665 330.2469 331.9665C331.90372 331.9665 333.2469 333.30963 333.2469 334.9665Z" fill-rule="nonzero"/><path fill="#000000" fill-opacity="0.0" clip-path="url(#id_0)" d="M366.74063 341.41098C366.74063 343.06784 365.3975 344.41098 363.74063 344.41098C362.08377 344.41098 360.74063 343.06784 360.74063 341.41098C360.74063 339.75412 362.08377 338.41098 363.74063 338.41098C365.3975 338.41098 366.74063 339.75412 366.74063 341.41098Z" fill-rule="nonzero"/><path fill="#000000" fill-opacity="0.0" clip-path="url(#id_0)" d="M400.23438 339.57065C400.23438 341.2275 398.89124 342.57065 397.23438 342.57065C395.5775 342.57065 394.23438 341.2275 394.23438 339.57065C394.23438 337.9138 395.5775 336.57065 397.23438 336.57065C398.89124 336.57065 400.23438 337.9138 400.23438 339.57065Z" fill-rule="nonzero"/><path fill="#000000" fill-opacity="0.0" clip-path="url(#id_0)" d="M433.72812 342.5814C433.72812 344.23825 432.38498 345.5814 430.72812 345.5814C429.07126 345.5814 427.72812 344.23825 427.72812 342.5814C427.72812 340.92453 429.07126 339.5814 430.72812 339.5814C432.38498 339.5814 433.72812 340.92453 433.72812 342.5814Z" fill-rule="nonzero"/><path fill="#000000" fill-opacity="0.0" clip-path="url(#id_0)" d="M467.22186 343.29254C467.22186 344.94937 465.87872 346.29254 464.22186 346.29254C462.56503 346.29254 461.22186 344.94937 461.22186 343.29254C461.22186 341.63568 462.56503 340.29254 464.22186 340.29254C465.87872 340.29254 467.22186 341.63568 467.22186 343.29254Z" fill-rule="nonzero"/><path fill="#000000" fill-opacity="0.0" clip-path="url(#id_0)" d="M500.71564 341.14505C500.71564 342.8019 499.37247 344.14505 497.71564 344.14505C496.05878 344.14505 494.71564 342.8019 494.71564 341.14505C494.71564 339.48822 496.05878 338.14505 497.71564 338.14505C499.37247 338.14505 500.71564 339.48822 500.71564 341.14505Z" fill-rule="nonzero"/><path fill="#000000" fill-opacity="0.0" clip-path="url(#id_0)" d="M534.20935 343.44922C534.20935 345.10608 532.8662 346.44922 531.20935 346.44922C529.5525 346.44922 528.20935 345.10608 528.20935 343.44922C528.20935 341.79236 529.5525 340.44922 531.20935 340.44922C532.8662 340.44922 534.20935 341.79236 534.20935 343.44922Z" fill-rule="nonzero"/><path fill="#000000" fill-opacity="0.0" clip-path="url(#id_0)" d="M567.7031 344.19427C567.7031 345.85114 566.36 347.19427 564.7031 347.19427C563.04626 347.19427 561.7031 345.85114 561.7031 344.19427C561.7031 342.53745 563.04626 341.19427 564.7031 341.19427C566.36 341.19427 567.7031 342.53745 567.7031 344.19427Z" fill-rule="nonzero"/><path fill="#757575" d="M38.6125 345.8094Q38.6125 347.71564 37.95625 348.65314Q37.315624 349.575 35.925 349.575Q34.565624 349.575 33.909374 348.66876Q33.253124 347.7625 33.221874 345.95L33.221874 344.5125Q33.221874 342.6219 33.8625 341.71564Q34.51875 340.79376 35.909374 340.79376Q37.284374 340.79376 37.940624 341.6844Q38.596874 342.5594 38.6125 344.40314L38.6125 345.8094ZM37.51875 344.325Q37.51875 342.95 37.128124 342.325Q36.753124 341.6844 35.909374 341.6844Q35.08125 341.6844 34.690624 342.325Q34.315624 342.95 34.315624 344.2469L34.315624 345.98126Q34.315624 347.35626 34.70625 348.02814Q35.1125 348.6844 35.925 348.6844Q36.721874 348.6844 37.1125 348.0594Q37.503124 347.4344 37.51875 346.10626L37.51875 344.325Z" fill-rule="nonzero"/><path fill="#757575" d="M28.6125 260.7538Q28.6125 262.66006 27.95625 263.59756Q27.315624 264.51944 25.925 264.51944Q24.565624 264.51944 23.909374 263.6132Q23.253124 262.70694 23.221874 260.89444L23.221874 259.45694Q23.221874 257.5663 23.8625 256.66006Q24.51875 255.73819 25.909374 255.73819Q27.284374 255.73819 27.940624 256.6288Q28.596874 257.5038 28.6125 259.34756L28.6125 260.7538ZM27.51875 259.26944Q27.51875 257.89444 27.128124 257.26944Q26.753124 256.6288 25.909374 256.6288Q25.08125 256.6288 24.690624 257.26944Q24.315624 257.89444 24.315624 259.1913L24.315624 260.9257Q24.315624 262.3007 24.70625 262.97256Q25.1125 263.6288 25.925 263.6288Q26.721874 263.6288 27.1125 263.0038Q27.503124 262.3788 27.51875 261.0507L27.51875 259.26944ZM30.39375 263.83194Q30.39375 263.5507 30.55 263.3632Q30.721874 263.1757 31.05 263.1757Q31.39375 263.1757 31.565624 263.3632Q31.7375 263.5507 31.7375 263.83194Q31.7375 264.09756 31.565624 264.28506Q31.39375 264.45694 31.05 264.45694Q30.721874 264.45694 30.55 264.28506Q30.39375 264.09756 30.39375 263.83194ZM33.753124 260.1132L34.190624 255.86319L38.565624 255.86319L38.565624 256.8632L35.1125 256.8632L34.846874 259.1913Q35.4875 258.8163 36.284374 258.8163Q37.440624 258.8163 38.128124 259.59756Q38.815624 260.3632 38.815624 261.6757Q38.815624 262.9882 38.096874 263.7538Q37.39375 264.51944 36.1125 264.51944Q34.9875 264.51944 34.26875 263.89444Q33.55 263.2538 33.45625 262.14444L34.471874 262.14444Q34.58125 262.8788 35.003124 263.2538Q35.425 263.6288 36.1125 263.6288Q36.8625 263.6288 37.3 263.1132Q37.7375 262.59756 37.7375 261.6913Q37.7375 260.83194 37.26875 260.3163Q36.8 259.8007 36.01875 259.8007Q35.315624 259.8007 34.909374 260.09756L34.628124 260.33194L33.753124 260.1132Z" fill-rule="nonzero"/><path fill="#757575" d="M36.815624 179.33888L35.7375 179.33888L35.7375 172.12013L33.55 172.917L33.55 171.93263L36.659374 170.76076L36.815624 170.76076L36.815624 179.33888Z" fill-rule="nonzero"/><path fill="#757575" d="M26.815624 94.28333L25.7375 94.28333L25.7375 87.06458L23.55 87.86146L23.55 86.87708L26.659374 85.70521L26.815624 85.70521L26.815624 94.28333ZM30.39375 93.72083Q30.39375 93.43958 30.55 93.25208Q30.721874 93.06458 31.05 93.06458Q31.39375 93.06458 31.565624 93.25208Q31.7375 93.43958 31.7375 93.72083Q31.7375 93.98646 31.565624 94.17396Q31.39375 94.34583 31.05 94.34583Q30.721874 94.34583 30.55 94.17396Q30.39375 93.98646 30.39375 93.72083ZM33.753124 90.00208L34.190624 85.75208L38.565624 85.75208L38.565624 86.75208L35.1125 86.75208L34.846874 89.08021Q35.4875 88.70521 36.284374 88.70521Q37.440624 88.70521 38.128124 89.48646Q38.815624 90.25208 38.815624 91.56458Q38.815624 92.87708 38.096874 93.64271Q37.39375 94.40833 36.1125 94.40833Q34.9875 94.40833 34.26875 93.78333Q33.55 93.14271 33.45625 92.03333L34.471874 92.03333Q34.58125 92.76771 35.003124 93.14271Q35.425 93.51771 36.1125 93.51771Q36.8625 93.51771 37.3 93.00208Q37.7375 92.48646 37.7375 91.58021Q37.7375 90.72083 37.26875 90.20521Q36.8 89.68958 36.01875 89.68958Q35.315624 89.68958 34.909374 89.98646L34.628124 90.22083L33.753124 90.00208Z" fill-rule="nonzero"/><path stroke="#4285f4" stroke-width="4.0" stroke-linecap="butt" d="M227.0 62.416668L239.0 62.416668" fill-rule="nonzero"/><path fill="#757575" d="M249.0 66.916664L247.92188 66.916664L247.92188 57.916664L249.0 57.916664L249.0 66.916664ZM250.53125 63.68229Q250.53125 62.760414 250.89062 62.010414Q251.26562 61.260414 251.92188 60.86979Q252.57812 60.46354 253.40625 60.46354Q254.70312 60.46354 255.5 61.354164Q256.3125 62.24479 256.3125 63.74479L256.3125 63.822914Q256.3125 64.74479 255.95312 65.479164Q255.59375 66.21354 254.9375 66.635414Q254.28125 67.041664 253.42188 67.041664Q252.14062 67.041664 251.32812 66.15104Q250.53125 65.24479 250.53125 63.760414L250.53125 63.68229ZM251.625 63.822914Q251.625 64.86979 252.10938 65.510414Q252.60938 66.15104 253.42188 66.15104Q254.25 66.15104 254.73438 65.510414Q255.21875 64.854164 255.21875 63.68229Q255.21875 62.65104 254.71875 62.010414Q254.23438 61.354164 253.40625 61.354164Q252.60938 61.354164 252.10938 61.99479Q251.625 62.61979 251.625 63.822914ZM261.51562 65.229164Q261.51562 64.791664 261.17188 64.55729Q260.84375 64.30729 260.01562 64.135414Q259.20312 63.96354 258.71875 63.71354Q258.23438 63.46354 258.0 63.135414Q257.78125 62.791664 257.78125 62.322914Q257.78125 61.541664 258.4375 61.010414Q259.09375 60.46354 260.125 60.46354Q261.20312 60.46354 261.85938 61.02604Q262.53125 61.572914 262.53125 62.43229L261.45312 62.43229Q261.45312 61.99479 261.0625 61.68229Q260.6875 61.354164 260.125 61.354164Q259.53125 61.354164 259.1875 61.61979Q258.85938 61.86979 258.85938 62.27604Q258.85938 62.666664 259.17188 62.86979Q259.48438 63.072914 260.29688 63.260414Q261.10938 63.43229 261.60938 63.68229Q262.10938 63.93229 262.34375 64.291664Q262.59375 64.65104 262.59375 65.15104Q262.59375 66.010414 261.90625 66.52604Q261.23438 67.041664 260.15625 67.041664Q259.39062 67.041664 258.79688 66.77604Q258.21875 66.49479 257.89062 66.010414Q257.5625 65.52604 257.5625 64.96354L258.64062 64.96354Q258.67188 65.510414 259.07812 65.83854Q259.48438 66.15104 260.15625 66.15104Q260.76562 66.15104 261.14062 65.90104Q261.51562 65.65104 261.51562 65.229164ZM267.51562 65.229164Q267.51562 64.791664 267.17188 64.55729Q266.84375 64.30729 266.01562 64.135414Q265.20312 63.96354 264.71875 63.71354Q264.23438 63.46354 264.0 63.135414Q263.78125 62.791664 263.78125 62.322914Q263.78125 61.541664 264.4375 61.010414Q265.09375 60.46354 266.125 60.46354Q267.20312 60.46354 267.85938 61.02604Q268.53125 61.572914 268.53125 62.43229L267.45312 62.43229Q267.45312 61.99479 267.0625 61.68229Q266.6875 61.354164 266.125 61.354164Q265.53125 61.354164 265.1875 61.61979Q264.85938 61.86979 264.85938 62.27604Q264.85938 62.666664 265.17188 62.86979Q265.48438 63.072914 266.29688 63.260414Q267.10938 63.43229 267.60938 63.68229Q268.10938 63.93229 268.34375 64.291664Q268.59375 64.65104 268.59375 65.15104Q268.59375 66.010414 267.90625 66.52604Q267.23438 67.041664 266.15625 67.041664Q265.39062 67.041664 264.79688 66.77604Q264.21875 66.49479 263.89062 66.010414Q263.5625 65.52604 263.5625 64.96354L264.64062 64.96354Q264.67188 65.510414 265.07812 65.83854Q265.48438 66.15104 266.15625 66.15104Q266.76562 66.15104 267.14062 65.90104Q267.51562 65.65104 267.51562 65.229164ZM274.39062 67.80729L269.03125 67.80729L269.03125 66.916664L274.39062 66.916664L274.39062 67.80729ZM274.5625 63.697914Q274.5625 62.21354 275.25 61.33854Q275.9375 60.46354 277.0625 60.46354Q278.21875 60.46354 278.875 61.27604L278.92188 60.572914L279.92188 60.572914L279.92188 66.760414Q279.92188 67.99479 279.1875 68.697914Q278.45312 69.416664 277.23438 69.416664Q276.54688 69.416664 275.89062 69.11979Q275.23438 68.822914 274.89062 68.322914L275.45312 67.666664Q276.14062 68.52604 277.15625 68.52604Q277.9375 68.52604 278.375 68.072914Q278.82812 67.635414 278.82812 66.822914L278.82812 66.27604Q278.17188 67.041664 277.04688 67.041664Q275.9375 67.041664 275.25 66.15104Q274.5625 65.24479 274.5625 63.697914ZM275.65625 63.822914Q275.65625 64.885414 276.09375 65.510414Q276.53125 66.11979 277.32812 66.11979Q278.34375 66.11979 278.82812 65.18229L278.82812 62.291664Q278.32812 61.385414 277.32812 61.385414Q276.54688 61.385414 276.09375 61.99479Q275.65625 62.604164 275.65625 63.822914ZM284.45312 67.041664Q283.15625 67.041664 282.34375 66.197914Q281.54688 65.33854 281.54688 63.916664L281.54688 63.729164Q281.54688 62.77604 281.90625 62.041664Q282.26562 61.291664 282.90625 60.885414Q283.5625 60.46354 284.3125 60.46354Q285.54688 60.46354 286.23438 61.27604Q286.92188 62.08854 286.92188 63.604164L286.92188 64.05729L282.625 64.05729Q282.65625 64.99479 283.17188 65.572914Q283.70312 66.15104 284.51562 66.15104Q285.07812 66.15104 285.46875 65.916664Q285.875 65.68229 286.1875 65.291664L286.84375 65.80729Q286.04688 67.041664 284.45312 67.041664ZM284.3125 61.354164Q283.65625 61.354164 283.20312 61.83854Q282.76562 62.30729 282.67188 63.166664L285.84375 63.166664L285.84375 63.08854Q285.79688 62.260414 285.39062 61.80729Q285.0 61.354164 284.3125 61.354164ZM288.84375 60.572914L288.875 61.36979Q289.60938 60.46354 290.78125 60.46354Q292.79688 60.46354 292.8125 62.729164L292.8125 66.916664L291.71875 66.916664L291.71875 62.71354Q291.71875 62.041664 291.40625 61.71354Q291.10938 61.385414 290.45312 61.385414Q289.92188 61.385414 289.51562 61.666664Q289.125 61.947914 288.90625 62.40104L288.90625 66.916664L287.82812 66.916664L287.82812 60.572914L288.84375 60.572914Z" fill-rule="nonzero"/><path stroke="#db4437" stroke-width="4.0" stroke-linecap="butt" d="M310.0 62.416668L322.0 62.416668" fill-rule="nonzero"/><path fill="#757575" d="M332.0 66.916664L330.92188 66.916664L330.92188 57.916664L332.0 57.916664L332.0 66.916664ZM333.53125 63.68229Q333.53125 62.760414 333.89062 62.010414Q334.26562 61.260414 334.92188 60.86979Q335.57812 60.46354 336.40625 60.46354Q337.70312 60.46354 338.5 61.354164Q339.3125 62.24479 339.3125 63.74479L339.3125 63.822914Q339.3125 64.74479 338.95312 65.479164Q338.59375 66.21354 337.9375 66.635414Q337.28125 67.041664 336.42188 67.041664Q335.14062 67.041664 334.32812 66.15104Q333.53125 65.24479 333.53125 63.760414L333.53125 63.68229ZM334.625 63.822914Q334.625 64.86979 335.10938 65.510414Q335.60938 66.15104 336.42188 66.15104Q337.25 66.15104 337.73438 65.510414Q338.21875 64.854164 338.21875 63.68229Q338.21875 62.65104 337.71875 62.010414Q337.23438 61.354164 336.40625 61.354164Q335.60938 61.354164 335.10938 61.99479Q334.625 62.61979 334.625 63.822914ZM344.51562 65.229164Q344.51562 64.791664 344.17188 64.55729Q343.84375 64.30729 343.01562 64.135414Q342.20312 63.96354 341.71875 63.71354Q341.23438 63.46354 341.0 63.135414Q340.78125 62.791664 340.78125 62.322914Q340.78125 61.541664 341.4375 61.010414Q342.09375 60.46354 343.125 60.46354Q344.20312 60.46354 344.85938 61.02604Q345.53125 61.572914 345.53125 62.43229L344.45312 62.43229Q344.45312 61.99479 344.0625 61.68229Q343.6875 61.354164 343.125 61.354164Q342.53125 61.354164 342.1875 61.61979Q341.85938 61.86979 341.85938 62.27604Q341.85938 62.666664 342.17188 62.86979Q342.48438 63.072914 343.29688 63.260414Q344.10938 63.43229 344.60938 63.68229Q345.10938 63.93229 345.34375 64.291664Q345.59375 64.65104 345.59375 65.15104Q345.59375 66.010414 344.90625 66.52604Q344.23438 67.041664 343.15625 67.041664Q342.39062 67.041664 341.79688 66.77604Q341.21875 66.49479 340.89062 66.010414Q340.5625 65.52604 340.5625 64.96354L341.64062 64.96354Q341.67188 65.510414 342.07812 65.83854Q342.48438 66.15104 343.15625 66.15104Q343.76562 66.15104 344.14062 65.90104Q344.51562 65.65104 344.51562 65.229164ZM350.51562 65.229164Q350.51562 64.791664 350.17188 64.55729Q349.84375 64.30729 349.01562 64.135414Q348.20312 63.96354 347.71875 63.71354Q347.23438 63.46354 347.0 63.135414Q346.78125 62.791664 346.78125 62.322914Q346.78125 61.541664 347.4375 61.010414Q348.09375 60.46354 349.125 60.46354Q350.20312 60.46354 350.85938 61.02604Q351.53125 61.572914 351.53125 62.43229L350.45312 62.43229Q350.45312 61.99479 350.0625 61.68229Q349.6875 61.354164 349.125 61.354164Q348.53125 61.354164 348.1875 61.61979Q347.85938 61.86979 347.85938 62.27604Q347.85938 62.666664 348.17188 62.86979Q348.48438 63.072914 349.29688 63.260414Q350.10938 63.43229 350.60938 63.68229Q351.10938 63.93229 351.34375 64.291664Q351.59375 64.65104 351.59375 65.15104Q351.59375 66.010414 350.90625 66.52604Q350.23438 67.041664 349.15625 67.041664Q348.39062 67.041664 347.79688 66.77604Q347.21875 66.49479 346.89062 66.010414Q346.5625 65.52604 346.5625 64.96354L347.64062 64.96354Q347.67188 65.510414 348.07812 65.83854Q348.48438 66.15104 349.15625 66.15104Q349.76562 66.15104 350.14062 65.90104Q350.51562 65.65104 350.51562 65.229164ZM357.39062 67.80729L352.03125 67.80729L352.03125 66.916664L357.39062 66.916664L357.39062 67.80729ZM357.5625 63.697914Q357.5625 62.229164 358.25 61.354164Q358.9375 60.46354 360.0625 60.46354Q361.17188 60.46354 361.82812 61.21354L361.82812 57.916664L362.90625 57.916664L362.90625 66.916664L361.90625 66.916664L361.85938 66.229164Q361.20312 67.041664 360.04688 67.041664Q358.95312 67.041664 358.25 66.135414Q357.5625 65.229164 357.5625 63.77604L357.5625 63.697914ZM358.64062 63.822914Q358.64062 64.90104 359.07812 65.510414Q359.53125 66.11979 360.3125 66.11979Q361.34375 66.11979 361.82812 65.18229L361.82812 62.27604Q361.34375 61.385414 360.32812 61.385414Q359.53125 61.385414 359.07812 61.99479Q358.64062 62.604164 358.64062 63.822914ZM366.0 66.916664L364.92188 66.916664L364.92188 60.572914L366.0 60.572914L366.0 66.916664ZM364.82812 58.90104Q364.82812 58.635414 364.98438 58.447914Q365.15625 58.260414 365.46875 58.260414Q365.78125 58.260414 365.9375 58.447914Q366.10938 58.635414 366.10938 58.90104Q366.10938 59.15104 365.9375 59.33854Q365.78125 59.510414 365.46875 59.510414Q365.15625 59.510414 364.98438 59.33854Q364.82812 59.15104 364.82812 58.90104ZM371.51562 65.229164Q371.51562 64.791664 371.17188 64.55729Q370.84375 64.30729 370.01562 64.135414Q369.20312 63.96354 368.71875 63.71354Q368.23438 63.46354 368.0 63.135414Q367.78125 62.791664 367.78125 62.322914Q367.78125 61.541664 368.4375 61.010414Q369.09375 60.46354 370.125 60.46354Q371.20312 60.46354 371.85938 61.02604Q372.53125 61.572914 372.53125 62.43229L371.45312 62.43229Q371.45312 61.99479 371.0625 61.68229Q370.6875 61.354164 370.125 61.354164Q369.53125 61.354164 369.1875 61.61979Q368.85938 61.86979 368.85938 62.27604Q368.85938 62.666664 369.17188 62.86979Q369.48438 63.072914 370.29688 63.260414Q371.10938 63.43229 371.60938 63.68229Q372.10938 63.93229 372.34375 64.291664Q372.59375 64.65104 372.59375 65.15104Q372.59375 66.010414 371.90625 66.52604Q371.23438 67.041664 370.15625 67.041664Q369.39062 67.041664 368.79688 66.77604Q368.21875 66.49479 367.89062 66.010414Q367.5625 65.52604 367.5625 64.96354L368.64062 64.96354Q368.67188 65.510414 369.07812 65.83854Q369.48438 66.15104 370.15625 66.15104Q370.76562 66.15104 371.14062 65.90104Q371.51562 65.65104 371.51562 65.229164Z" fill-rule="nonzero"/><path fill="#757575" d="M22.08125 36.01875L28.83125 36.01875L28.83125 37.55L20.20625 37.55L20.20625 23.33125L22.08125 23.33125L22.08125 36.01875ZM30.440624 32.175Q30.440624 30.6125 31.05 29.378124Q31.659374 28.128124 32.7375 27.45625Q33.83125 26.784374 35.2375 26.784374Q37.39375 26.784374 38.721874 28.284374Q40.065624 29.76875 40.065624 32.253124L40.065624 32.378124Q40.065624 33.925 39.471874 35.159374Q38.878124 36.378124 37.76875 37.065624Q36.675 37.753124 35.253124 37.753124Q33.1125 37.753124 31.76875 36.253124Q30.440624 34.753124 30.440624 32.3L30.440624 32.175ZM32.253124 32.378124Q32.253124 34.14375 33.065624 35.20625Q33.89375 36.26875 35.253124 36.26875Q36.628124 36.26875 37.440624 35.190624Q38.253124 34.1125 38.253124 32.175Q38.253124 30.425 37.425 29.346874Q36.596874 28.26875 35.2375 28.26875Q33.89375 28.26875 33.065624 29.33125Q32.253124 30.39375 32.253124 32.378124ZM48.065624 34.753124Q48.065624 34.01875 47.51875 33.6125Q46.971874 33.20625 45.596874 32.909374Q44.221874 32.6125 43.409374 32.20625Q42.6125 31.8 42.221874 31.2375Q41.846874 30.659374 41.846874 29.878124Q41.846874 28.58125 42.940624 27.690624Q44.034374 26.784374 45.753124 26.784374Q47.55 26.784374 48.659374 27.721874Q49.784374 28.64375 49.784374 30.08125L47.95625 30.08125Q47.95625 29.346874 47.33125 28.815624Q46.70625 28.26875 45.753124 28.26875Q44.753124 28.26875 44.190624 28.70625Q43.64375 29.128124 43.64375 29.83125Q43.64375 30.471874 44.159374 30.815624Q44.675 31.14375 46.034374 31.45625Q47.39375 31.753124 48.221874 32.175Q49.065624 32.58125 49.471874 33.175Q49.878124 33.76875 49.878124 34.6125Q49.878124 36.034374 48.7375 36.89375Q47.6125 37.753124 45.8 37.753124Q44.534374 37.753124 43.55 37.3Q42.58125 36.846874 42.01875 36.05Q41.471874 35.2375 41.471874 34.3L43.284374 34.3Q43.33125 35.20625 44.003124 35.7375Q44.690624 36.26875 45.8 36.26875Q46.83125 36.26875 47.440624 35.8625Q48.065624 35.440624 48.065624 34.753124ZM58.065624 34.753124Q58.065624 34.01875 57.51875 33.6125Q56.971874 33.20625 55.596874 32.909374Q54.221874 32.6125 53.409374 32.20625Q52.6125 31.8 52.221874 31.2375Q51.846874 30.659374 51.846874 29.878124Q51.846874 28.58125 52.940624 27.690624Q54.034374 26.784374 55.753124 26.784374Q57.55 26.784374 58.659374 27.721874Q59.784374 28.64375 59.784374 30.08125L57.95625 30.08125Q57.95625 29.346874 57.33125 28.815624Q56.70625 28.26875 55.753124 28.26875Q54.753124 28.26875 54.190624 28.70625Q53.64375 29.128124 53.64375 29.83125Q53.64375 30.471874 54.159374 30.815624Q54.675 31.14375 56.034374 31.45625Q57.39375 31.753124 58.221874 32.175Q59.065624 32.58125 59.471874 33.175Q59.878124 33.76875 59.878124 34.6125Q59.878124 36.034374 58.7375 36.89375Q57.6125 37.753124 55.8 37.753124Q54.534374 37.753124 53.55 37.3Q52.58125 36.846874 52.01875 36.05Q51.471874 35.2375 51.471874 34.3L53.284374 34.3Q53.33125 35.20625 54.003124 35.7375Q54.690624 36.26875 55.8 36.26875Q56.83125 36.26875 57.440624 35.8625Q58.065624 35.440624 58.065624 34.753124Z" fill-rule="nonzero"/></svg>