<svg version="1.1" viewBox="0.0 0.0 960.0 720.0" fill="none" stroke="none" stroke-linecap="square" stroke-miterlimit="10" xmlns:xlink="http://www.w3.org/1999/xlink" xmlns="http://www.w3.org/2000/svg"><clipPath id="p.0"><path d="m0 0l960.0 0l0 720.0l-960.0 0l0 -720.0z" clip-rule="nonzero"/></clipPath><g clip-path="url(#p.0)"><path fill="#000000" fill-opacity="0.0" d="m0 0l960.0 0l0 720.0l-960.0 0z" fill-rule="evenodd"/><g filter="url(#shadowFilter-p.1)"><use xlink:href="#p.1" transform="matrix(1.0 0.0 0.0 1.0 0.0 2.0)"/></g><defs><filter id="shadowFilter-p.1" filterUnits="userSpaceOnUse"><feGaussianBlur in="SourceAlpha" stdDeviation="2.0" result="blur"/><feComponentTransfer in="blur" color-interpolation-filters="sRGB"><feFuncR type="linear" slope="0" intercept="0.0"/><feFuncG type="linear" slope="0" intercept="0.0"/><feFuncB type="linear" slope="0" intercept="0.0"/><feFuncA type="linear" slope="0.45" intercept="0"/></feComponentTransfer></filter></defs><g id="p.1"><path fill="#000000" fill-opacity="0.0" d="m269.84515 131.7096l0 0c0 -25.698425 20.832672 -46.53112 46.531097 -46.53112l296.79605 0c12.34082 0 24.176208 4.9023743 32.902466 13.6286545c8.726257 8.726273 13.628662 20.561646 13.628662 32.902466l0 186.11887c0 25.698425 -20.832703 46.531128 -46.531128 46.531128l-296.79605 0c-25.698425 0 -46.531097 -20.832703 -46.531097 -46.531128z" fill-rule="evenodd"/><path stroke="#000000" stroke-width="1.0" stroke-linejoin="round" stroke-linecap="butt" d="m269.84515 131.7096l0 0c0 -25.698425 20.832672 -46.53112 46.531097 -46.53112l296.79605 0c12.34082 0 24.176208 4.9023743 32.902466 13.6286545c8.726257 8.726273 13.628662 20.561646 13.628662 32.902466l0 186.11887c0 25.698425 -20.832703 46.531128 -46.531128 46.531128l-296.79605 0c-25.698425 0 -46.531097 -20.832703 -46.531097 -46.531128z" fill-rule="evenodd"/></g><path fill="#000000" fill-opacity="0.0" d="m273.57742 468.08493l0 0c0 -25.698425 20.832703 -46.531128 46.531128 -46.531128l296.79605 0c12.34082 0 24.176147 4.9023743 32.902466 13.628662c8.726257 8.726257 13.628601 20.561646 13.628601 32.902466l0 186.11887c0 25.698425 -20.832642 46.531128 -46.531067 46.531128l-296.79605 0c-25.698425 0 -46.531128 -20.832703 -46.531128 -46.531128z" fill-rule="evenodd"/><path stroke="#000000" stroke-width="1.0" stroke-linejoin="round" stroke-linecap="butt" d="m273.57742 468.08493l0 0c0 -25.698425 20.832703 -46.531128 46.531128 -46.531128l296.79605 0c12.34082 0 24.176147 4.9023743 32.902466 13.628662c8.726257 8.726257 13.628601 20.561646 13.628601 32.902466l0 186.11887c0 25.698425 -20.832642 46.531128 -46.531067 46.531128l-296.79605 0c-25.698425 0 -46.531128 -20.832703 -46.531128 -46.531128z" fill-rule="evenodd"/><path fill="#8e7cc3" d="m312.74802 119.37533l41.19687 0l0 222.58267l-41.19687 0z" fill-rule="evenodd"/><path stroke="#000000" stroke-width="1.0" stroke-linejoin="round" stroke-linecap="butt" d="m312.74802 119.37533l41.19687 0l0 222.58267l-41.19687 0z" fill-rule="evenodd"/><path fill="#000000" d="m325.71677 227.90666l-0.9375 0l0 -5.96875q-0.34375 0.328125 -0.890625 0.65625q-0.546875 0.3125 -0.984375 0.46875l0 -0.90625q0.796875 -0.359375 1.375 -0.890625q0.59375 -0.53125 0.828125 -1.015625l0.609375 0l0 7.65625zm7.3171387 -0.90625l0 0.90625l-5.03125 0q-0.015625 -0.34375 0.109375 -0.65625q0.1875 -0.515625 0.609375 -1.015625q0.421875 -0.5 1.234375 -1.140625q1.234375 -1.03125 1.671875 -1.625q0.4375 -0.59375 0.4375 -1.125q0 -0.5625 -0.40625 -0.9375q-0.390625 -0.390625 -1.03125 -0.390625q-0.671875 0 -1.078125 0.40625q-0.40625 0.40625 -0.40625 1.125l-0.96875 -0.09375q0.09375 -1.078125 0.734375 -1.640625q0.65625 -0.5625 1.734375 -0.5625q1.109375 0 1.75 0.609375q0.640625 0.609375 0.640625 1.5q0 0.46875 -0.1875 0.90625q-0.1875 0.4375 -0.625 0.9375q-0.4375 0.484375 -1.453125 1.328125q-0.828125 0.71875 -1.078125 0.96875q-0.234375 0.25 -0.390625 0.5l3.734375 0zm2.4577332 -3.234375q-0.59375 -0.203125 -0.875 -0.59375q-0.28125 -0.40625 -0.28125 -0.953125q0 -0.84375 0.59375 -1.40625q0.609375 -0.5625 1.59375 -0.5625q1.0 0 1.609375 0.578125q0.609375 0.578125 0.609375 1.40625q0 0.53125 -0.28125 0.9375q-0.265625 0.390625 -0.84375 0.59375q0.703125 0.234375 1.0625 0.75q0.375 0.5 0.375 1.203125q0 0.984375 -0.6875 1.65625q-0.6875 0.65625 -1.828125 0.65625q-1.125 0 -1.8125 -0.65625q-0.6875 -0.671875 -0.6875 -1.671875q0 -0.75 0.375 -1.25q0.375 -0.5 1.078125 -0.6875zm-0.1875 -1.578125q0 0.53125 0.34375 0.875q0.34375 0.34375 0.90625 0.34375q0.53125 0 0.875 -0.328125q0.359375 -0.34375 0.359375 -0.84375q0 -0.515625 -0.359375 -0.859375q-0.359375 -0.359375 -0.890625 -0.359375q-0.53125 0 -0.890625 0.34375q-0.34375 0.34375 -0.34375 0.828125zm-0.3125 3.515625q0 0.40625 0.1875 0.78125q0.203125 0.375 0.578125 0.578125q0.375 0.203125 0.796875 0.203125q0.671875 0 1.109375 -0.421875q0.4375 -0.4375 0.4375 -1.109375q0 -0.671875 -0.453125 -1.109375q-0.453125 -0.453125 -1.125 -0.453125q-0.65625 0 -1.09375 0.4375q-0.4375 0.4375 -0.4375 1.09375z" fill-rule="nonzero"/><path fill="#000000" d="m322.59177 240.90666l0 -7.625l3.375 0q1.015625 0 1.546875 0.203125q0.53125 0.203125 0.84375 0.734375q0.328125 0.515625 0.328125 1.140625q0 0.8125 -0.53125 1.375q-0.515625 0.546875 -1.625 0.703125q0.40625 0.1875 0.609375 0.375q0.453125 0.40625 0.84375 1.015625l1.328125 2.078125l-1.265625 0l-1.015625 -1.59375q-0.4375 -0.6875 -0.734375 -1.046875q-0.28125 -0.359375 -0.515625 -0.5q-0.21875 -0.15625 -0.453125 -0.203125q-0.171875 -0.046875 -0.5625 -0.046875l-1.171875 0l0 3.390625l-1.0 0zm1.0 -4.265625l2.171875 0q0.6875 0 1.078125 -0.140625q0.390625 -0.140625 0.59375 -0.453125q0.203125 -0.3125 0.203125 -0.6875q0 -0.546875 -0.390625 -0.890625q-0.390625 -0.34375 -1.234375 -0.34375l-2.421875 0l0 2.515625zm10.336243 2.484375l0.96875 0.125q-0.234375 0.84375 -0.859375 1.3125q-0.609375 0.46875 -1.578125 0.46875q-1.203125 0 -1.921875 -0.75q-0.703125 -0.75 -0.703125 -2.09375q0 -1.390625 0.71875 -2.15625q0.71875 -0.78125 1.859375 -0.78125q1.109375 0 1.8125 0.765625q0.703125 0.75 0.703125 2.125q0 0.078125 0 0.234375l-4.125 0q0.046875 0.921875 0.515625 1.40625q0.46875 0.484375 1.15625 0.484375q0.515625 0 0.875 -0.265625q0.359375 -0.28125 0.578125 -0.875zm-3.078125 -1.515625l3.09375 0q-0.0625 -0.6875 -0.359375 -1.046875q-0.453125 -0.53125 -1.15625 -0.53125q-0.640625 0 -1.09375 0.4375q-0.4375 0.421875 -0.484375 1.140625zm5.207733 3.296875l0 -7.625l0.9375 0l0 7.625l-0.9375 0zm6.0081177 0l0 -0.8125q-0.65625 0.9375 -1.75 0.9375q-0.5 0 -0.921875 -0.1875q-0.421875 -0.1875 -0.625 -0.46875q-0.203125 -0.28125 -0.296875 -0.703125q-0.046875 -0.265625 -0.046875 -0.875l0 -3.421875l0.9375 0l0 3.0625q0 0.734375 0.046875 1.0q0.09375 0.359375 0.375 0.578125q0.296875 0.203125 0.703125 0.203125q0.421875 0 0.796875 -0.203125q0.375 -0.21875 0.515625 -0.59375q0.15625 -0.375 0.15625 -1.078125l0 -2.96875l0.9375 0l0 5.53125l-0.828125 0z" fill-rule="nonzero"/><path fill="#8e7cc3" d="m408.64435 119.37533l41.19687 0l0 222.58267l-41.19687 0z" fill-rule="evenodd"/><path stroke="#000000" stroke-width="1.0" stroke-linejoin="round" stroke-linecap="butt" d="m408.64435 119.37533l41.19687 0l0 222.58267l-41.19687 0z" fill-rule="evenodd"/><path fill="#000000" d="m421.6131 227.90666l-0.9375 0l0 -5.96875q-0.34375 0.328125 -0.890625 0.65625q-0.546875 0.3125 -0.984375 0.46875l0 -0.90625q0.796875 -0.359375 1.375 -0.890625q0.59375 -0.53125 0.828125 -1.015625l0.609375 0l0 7.65625zm7.3171387 -0.90625l0 0.90625l-5.03125 0q-0.015625 -0.34375 0.109375 -0.65625q0.1875 -0.515625 0.609375 -1.015625q0.421875 -0.5 1.234375 -1.140625q1.234375 -1.03125 1.671875 -1.625q0.4375 -0.59375 0.4375 -1.125q0 -0.5625 -0.40625 -0.9375q-0.390625 -0.390625 -1.03125 -0.390625q-0.671875 0 -1.078125 0.40625q-0.40625 0.40625 -0.40625 1.125l-0.96875 -0.09375q0.09375 -1.078125 0.734375 -1.640625q0.65625 -0.5625 1.734375 -0.5625q1.109375 0 1.75 0.609375q0.640625 0.609375 0.640625 1.5q0 0.46875 -0.1875 0.90625q-0.1875 0.4375 -0.625 0.9375q-0.4375 0.484375 -1.453125 1.328125q-0.828125 0.71875 -1.078125 0.96875q-0.234375 0.25 -0.390625 0.5l3.734375 0zm2.4577332 -3.234375q-0.59375 -0.203125 -0.875 -0.59375q-0.28125 -0.40625 -0.28125 -0.953125q0 -0.84375 0.59375 -1.40625q0.609375 -0.5625 1.59375 -0.5625q1.0 0 1.609375 0.578125q0.609375 0.578125 0.609375 1.40625q0 0.53125 -0.28125 0.9375q-0.265625 0.390625 -0.84375 0.59375q0.703125 0.234375 1.0625 0.75q0.375 0.5 0.375 1.203125q0 0.984375 -0.6875 1.65625q-0.6875 0.65625 -1.828125 0.65625q-1.125 0 -1.8125 -0.65625q-0.6875 -0.671875 -0.6875 -1.671875q0 -0.75 0.375 -1.25q0.375 -0.5 1.078125 -0.6875zm-0.1875 -1.578125q0 0.53125 0.34375 0.875q0.34375 0.34375 0.90625 0.34375q0.53125 0 0.875 -0.328125q0.359375 -0.34375 0.359375 -0.84375q0 -0.515625 -0.359375 -0.859375q-0.359375 -0.359375 -0.890625 -0.359375q-0.53125 0 -0.890625 0.34375q-0.34375 0.34375 -0.34375 0.828125zm-0.3125 3.515625q0 0.40625 0.1875 0.78125q0.203125 0.375 0.578125 0.578125q0.375 0.203125 0.796875 0.203125q0.671875 0 1.109375 -0.421875q0.4375 -0.4375 0.4375 -1.109375q0 -0.671875 -0.453125 -1.109375q-0.453125 -0.453125 -1.125 -0.453125q-0.65625 0 -1.09375 0.4375q-0.4375 0.4375 -0.4375 1.09375z" fill-rule="nonzero"/><path fill="#000000" d="m418.4881 240.90666l0 -7.625l3.375 0q1.015625 0 1.546875 0.203125q0.53125 0.203125 0.84375 0.734375q0.328125 0.515625 0.328125 1.140625q0 0.8125 -0.53125 1.375q-0.515625 0.546875 -1.625 0.703125q0.40625 0.1875 0.609375 0.375q0.453125 0.40625 0.84375 1.015625l1.328125 2.078125l-1.265625 0l-1.015625 -1.59375q-0.4375 -0.6875 -0.734375 -1.046875q-0.28125 -0.359375 -0.515625 -0.5q-0.21875 -0.15625 -0.453125 -0.203125q-0.171875 -0.046875 -0.5625 -0.046875l-1.171875 0l0 3.390625l-1.0 0zm1.0 -4.265625l2.171875 0q0.6875 0 1.078125 -0.140625q0.390625 -0.140625 0.59375 -0.453125q0.203125 -0.3125 0.203125 -0.6875q0 -0.546875 -0.390625 -0.890625q-0.390625 -0.34375 -1.234375 -0.34375l-2.421875 0l0 2.515625zm10.336243 2.484375l0.96875 0.125q-0.234375 0.84375 -0.859375 1.3125q-0.609375 0.46875 -1.578125 0.46875q-1.203125 0 -1.921875 -0.75q-0.703125 -0.75 -0.703125 -2.09375q0 -1.390625 0.71875 -2.15625q0.71875 -0.78125 1.859375 -0.78125q1.109375 0 1.8125 0.765625q0.703125 0.75 0.703125 2.125q0 0.078125 0 0.234375l-4.125 0q0.046875 0.921875 0.515625 1.40625q0.46875 0.484375 1.15625 0.484375q0.515625 0 0.875 -0.265625q0.359375 -0.28125 0.578125 -0.875zm-3.078125 -1.515625l3.09375 0q-0.0625 -0.6875 -0.359375 -1.046875q-0.453125 -0.53125 -1.15625 -0.53125q-0.640625 0 -1.09375 0.4375q-0.4375 0.421875 -0.484375 1.140625zm5.207733 3.296875l0 -7.625l0.9375 0l0 7.625l-0.9375 0zm6.0081177 0l0 -0.8125q-0.65625 0.9375 -1.75 0.9375q-0.5 0 -0.921875 -0.1875q-0.421875 -0.1875 -0.625 -0.46875q-0.203125 -0.28125 -0.296875 -0.703125q-0.046875 -0.265625 -0.046875 -0.875l0 -3.421875l0.9375 0l0 3.0625q0 0.734375 0.046875 1.0q0.09375 0.359375 0.375 0.578125q0.296875 0.203125 0.703125 0.203125q0.421875 0 0.796875 -0.203125q0.375 -0.21875 0.515625 -0.59375q0.15625 -0.375 0.15625 -1.078125l0 -2.96875l0.9375 0l0 5.53125l-0.828125 0z" fill-rule="nonzero"/><path fill="#8e7cc3" d="m496.4567 119.37533l41.19687 0l0 222.58267l-41.19687 0z" fill-rule="evenodd"/><path stroke="#000000" stroke-width="1.0" stroke-linejoin="round" stroke-linecap="butt" d="m496.4567 119.37533l41.19687 0l0 222.58267l-41.19687 0z" fill-rule="evenodd"/><path fill="#000000" d="m506.05045 228.34666l0 -5.734375l2.140625 0q0.65625 0 1.046875 0.1875q0.40625 0.171875 0.625 0.53125q0.234375 0.359375 0.234375 0.75q0 0.375 -0.203125 0.703125q-0.203125 0.3125 -0.609375 0.515625q0.53125 0.15625 0.796875 0.53125q0.28125 0.359375 0.28125 0.859375q0 0.390625 -0.171875 0.75q-0.15625 0.34375 -0.40625 0.53125q-0.25 0.1875 -0.640625 0.28125q-0.375 0.09375 -0.921875 0.09375l-2.171875 0zm0.75 -3.328125l1.234375 0q0.515625 0 0.734375 -0.0625q0.28125 -0.078125 0.421875 -0.28125q0.15625 -0.203125 0.15625 -0.5q0 -0.28125 -0.140625 -0.5q-0.140625 -0.21875 -0.390625 -0.296875q-0.25 -0.078125 -0.875 -0.078125l-1.140625 0l0 1.71875zm0 2.65625l1.421875 0q0.375 0 0.515625 -0.03125q0.265625 -0.046875 0.4375 -0.15625q0.1875 -0.109375 0.296875 -0.3125q0.109375 -0.21875 0.109375 -0.484375q0 -0.328125 -0.171875 -0.5625q-0.15625 -0.234375 -0.453125 -0.328125q-0.28125 -0.09375 -0.828125 -0.09375l-1.328125 0l0 1.96875zm7.226532 0.15625q-0.390625 0.328125 -0.75 0.46875q-0.359375 0.140625 -0.78125 0.140625q-0.6718445 0 -1.0468445 -0.328125q-0.359375 -0.34375 -0.359375 -0.859375q0 -0.3125 0.125 -0.5625q0.140625 -0.25 0.359375 -0.390625q0.234375 -0.15625 0.5155945 -0.234375q0.203125 -0.0625 0.625 -0.109375q0.859375 -0.109375 1.25 -0.25q0.015625 -0.140625 0.015625 -0.171875q0 -0.4375 -0.203125 -0.609375q-0.265625 -0.234375 -0.796875 -0.234375q-0.5 0 -0.734375 0.171875q-0.234375 0.171875 -0.35934448 0.609375l-0.6875 -0.09375q0.09375 -0.4375 0.3125 -0.703125q0.21875 -0.28125 0.6249695 -0.421875q0.40625 -0.15625 0.9375 -0.15625q0.53125 0 0.859375 0.125q0.34375 0.125 0.5 0.328125q0.15625 0.1875 0.21875 0.46875q0.03125 0.1875 0.03125 0.65625l0 0.9375q0 0.96875 0.046875 1.234375q0.046875 0.265625 0.171875 0.5l-0.734375 0q-0.109375 -0.21875 -0.140625 -0.515625zm-0.0625 -1.5625q-0.375 0.15625 -1.140625 0.265625q-0.4375 0.0625 -0.625 0.140625q-0.171875 0.078125 -0.26559448 0.234375q-0.09375 0.140625 -0.09375 0.328125q0 0.28125 0.20309448 0.46875q0.21875 0.1875 0.625 0.1875q0.40625 0 0.71875 -0.171875q0.328125 -0.1875 0.46875 -0.5q0.109375 -0.234375 0.109375 -0.703125l0 -0.25zm3.3398438 1.453125l0.109375 0.609375q-0.296875 0.078125 -0.53125 0.078125q-0.390625 0 -0.609375 -0.125q-0.203125 -0.125 -0.296875 -0.3125q-0.078125 -0.203125 -0.078125 -0.84375l0 -2.390625l-0.515625 0l0 -0.546875l0.515625 0l0 -1.015625l0.703125 -0.421875l0 1.4375l0.703125 0l0 0.546875l-0.703125 0l0 2.4375q0 0.296875 0.03125 0.390625q0.046875 0.078125 0.125 0.125q0.078125 0.046875 0.234375 0.046875q0.125 0 0.3125 -0.015625zm3.3945312 -0.890625l0.6875 0.078125q-0.109375 0.71875 -0.578125 1.125q-0.46875 0.40625 -1.140625 0.40625q-0.859375 0 -1.375 -0.546875q-0.515625 -0.5625 -0.515625 -1.609375q0 -0.671875 0.21875 -1.171875q0.234375 -0.5 0.6875 -0.75q0.453125 -0.265625 0.984375 -0.265625q0.671875 0 1.09375 0.34375q0.4375 0.34375 0.5625 0.96875l-0.6875 0.109375q-0.09375 -0.421875 -0.34375 -0.625q-0.25 -0.21875 -0.59375 -0.21875q-0.53125 0 -0.875 0.390625q-0.328125 0.375 -0.328125 1.203125q0 0.828125 0.3125 1.21875q0.328125 0.375 0.84375 0.375q0.421875 0 0.6875 -0.25q0.28125 -0.265625 0.359375 -0.78125zm1.296875 1.515625l0 -5.734375l0.703125 0l0 2.0625q0.484375 -0.578125 1.234375 -0.578125q0.46875 0 0.796875 0.1875q0.34375 0.1875 0.484375 0.515625q0.15625 0.3125 0.15625 0.921875l0 2.625l-0.703125 0l0 -2.625q0 -0.53125 -0.234375 -0.765625q-0.21875 -0.25 -0.640625 -0.25q-0.3125 0 -0.59375 0.171875q-0.265625 0.15625 -0.390625 0.4375q-0.109375 0.265625 -0.109375 0.765625l0 2.265625l-0.703125 0z" fill-rule="nonzero"/><path fill="#000000" d="m506.06607 238.34666l0 -5.734375l0.78125 0l3.0 4.5l0 -4.5l0.734375 0l0 5.734375l-0.78125 0l-3.0 -4.5l0 4.5l-0.734375 0zm5.4335938 -2.078125q0 -1.15625 0.6405945 -1.703125q0.53125 -0.46875 1.3125 -0.46875q0.84375 0 1.390625 0.5625q0.546875 0.5625 0.546875 1.546875q0 0.8125 -0.25 1.265625q-0.234375 0.453125 -0.703125 0.71875q-0.453125 0.25 -0.984375 0.25q-0.875 0 -1.421875 -0.5625q-0.5312195 -0.5625 -0.5312195 -1.609375zm0.7187195 0q0 0.796875 0.34375 1.203125q0.359375 0.390625 0.890625 0.390625q0.515625 0 0.859375 -0.390625q0.359375 -0.40625 0.359375 -1.21875q0 -0.78125 -0.359375 -1.171875q-0.34375 -0.390625 -0.859375 -0.390625q-0.53125 0 -0.890625 0.390625q-0.34375 0.390625 -0.34375 1.1875zm3.9804688 2.078125l0 -4.15625l0.640625 0l0 0.640625q0.234375 -0.453125 0.4375 -0.59375q0.21875 -0.140625 0.453125 -0.140625q0.359375 0 0.734375 0.234375l-0.25 0.65625q-0.25 -0.15625 -0.515625 -0.15625q-0.234375 0 -0.421875 0.140625q-0.171875 0.140625 -0.25 0.375q-0.125 0.375 -0.125 0.828125l0 2.171875l-0.703125 0zm2.6796875 0l0 -4.15625l0.625 0l0 0.59375q0.203125 -0.3125 0.515625 -0.5q0.328125 -0.1875 0.75 -0.1875q0.453125 0 0.75 0.203125q0.296875 0.1875 0.421875 0.53125q0.484375 -0.734375 1.28125 -0.734375q0.609375 0 0.9375 0.34375q0.34375 0.34375 0.34375 1.0625l0 2.84375l-0.703125 0l0 -2.609375q0 -0.421875 -0.078125 -0.609375q-0.0625 -0.1875 -0.25 -0.296875q-0.171875 -0.125 -0.40625 -0.125q-0.4375 0 -0.734375 0.296875q-0.28125 0.296875 -0.28125 0.9375l0 2.40625l-0.703125 0l0 -2.703125q0 -0.46875 -0.171875 -0.703125q-0.171875 -0.234375 -0.5625 -0.234375q-0.296875 0 -0.5625 0.15625q-0.25 0.15625 -0.359375 0.46875q-0.109375 0.296875 -0.109375 0.859375l0 2.15625l-0.703125 0z" fill-rule="nonzero"/><path fill="#8e7cc3" d="m584.2677 119.37533l41.19684 0l0 222.58267l-41.19684 0z" fill-rule="evenodd"/><path stroke="#000000" stroke-width="1.0" stroke-linejoin="round" stroke-linecap="butt" d="m584.2677 119.37533l41.19684 0l0 222.58267l-41.19684 0z" fill-rule="evenodd"/><path fill="#000000" d="m597.29895 227.67479l0 0.671875l-3.78125 0q-0.015625 -0.25 0.078125 -0.484375q0.140625 -0.390625 0.453125 -0.765625q0.328125 -0.375 0.921875 -0.875q0.9375 -0.765625 1.265625 -1.203125q0.328125 -0.453125 0.328125 -0.84375q0 -0.421875 -0.296875 -0.703125q-0.296875 -0.296875 -0.78125 -0.296875q-0.5 0 -0.8125 0.3125q-0.296875 0.296875 -0.3125 0.84375l-0.71875 -0.078125q0.078125 -0.8125 0.5625 -1.234375q0.484375 -0.421875 1.296875 -0.421875q0.828125 0 1.296875 0.453125q0.484375 0.453125 0.484375 1.140625q0 0.34375 -0.140625 0.671875q-0.140625 0.328125 -0.46875 0.703125q-0.3125 0.359375 -1.078125 1.0q-0.625 0.53125 -0.8125 0.71875q-0.171875 0.1875 -0.296875 0.390625l2.8125 0zm1.8398438 -2.4375q-0.4375 -0.15625 -0.65625 -0.453125q-0.203125 -0.296875 -0.203125 -0.71875q0 -0.625 0.4375 -1.046875q0.453125 -0.421875 1.203125 -0.421875q0.75 0 1.203125 0.4375q0.453125 0.4375 0.453125 1.0625q0 0.390625 -0.203125 0.6875q-0.203125 0.296875 -0.640625 0.453125q0.53125 0.171875 0.796875 0.5625q0.28125 0.375 0.28125 0.90625q0 0.734375 -0.515625 1.234375q-0.515625 0.5 -1.359375 0.5q-0.859375 0 -1.375 -0.5q-0.515625 -0.5 -0.515625 -1.25q0 -0.5625 0.28125 -0.9375q0.28125 -0.375 0.8125 -0.515625zm-0.140625 -1.1875q0 0.40625 0.25 0.671875q0.265625 0.25 0.6875 0.25q0.40625 0 0.65625 -0.25q0.265625 -0.265625 0.265625 -0.640625q0 -0.375 -0.265625 -0.640625q-0.265625 -0.265625 -0.671875 -0.265625q-0.390625 0 -0.65625 0.265625q-0.265625 0.25 -0.265625 0.609375zm-0.234375 2.640625q0 0.296875 0.140625 0.578125q0.140625 0.28125 0.421875 0.4375q0.28125 0.15625 0.609375 0.15625q0.5 0 0.828125 -0.3125q0.328125 -0.328125 0.328125 -0.828125q0 -0.515625 -0.34375 -0.84375q-0.328125 -0.328125 -0.828125 -0.328125q-0.5 0 -0.828125 0.328125q-0.328125 0.328125 -0.328125 0.8125zm3.6523438 -3.015625l0.1875 -0.5625q0.609375 0.21875 0.890625 0.375q-0.0625 -0.703125 -0.078125 -0.96875l0.578125 0q-0.015625 0.390625 -0.09375 0.96875q0.40625 -0.203125 0.921875 -0.375l0.171875 0.5625q-0.484375 0.15625 -0.96875 0.21875q0.234375 0.203125 0.671875 0.734375l-0.46875 0.328125q-0.21875 -0.3125 -0.53125 -0.84375q-0.296875 0.5625 -0.515625 0.84375l-0.453125 -0.328125q0.453125 -0.5625 0.640625 -0.734375q-0.5 -0.109375 -0.953125 -0.21875zm6.8945312 4.0l0 0.671875l-3.78125 0q-0.015625 -0.25 0.078125 -0.484375q0.140625 -0.390625 0.453125 -0.765625q0.328125 -0.375 0.921875 -0.875q0.9375 -0.765625 1.265625 -1.203125q0.328125 -0.453125 0.328125 -0.84375q0 -0.421875 -0.296875 -0.703125q-0.296875 -0.296875 -0.78125 -0.296875q-0.5 0 -0.8125 0.3125q-0.296875 0.296875 -0.3125 0.84375l-0.71875 -0.078125q0.078125 -0.8125 0.5625 -1.234375q0.484375 -0.421875 1.296875 -0.421875q0.828125 0 1.296875 0.453125q0.484375 0.453125 0.484375 1.140625q0 0.34375 -0.140625 0.671875q-0.140625 0.328125 -0.46875 0.703125q-0.3125 0.359375 -1.078125 1.0q-0.625 0.53125 -0.8125 0.71875q-0.171875 0.1875 -0.296875 0.390625l2.8125 0zm1.8398438 -2.4375q-0.4375 -0.15625 -0.65625 -0.453125q-0.203125 -0.296875 -0.203125 -0.71875q0 -0.625 0.4375 -1.046875q0.453125 -0.421875 1.203125 -0.421875q0.75 0 1.203125 0.4375q0.453125 0.4375 0.453125 1.0625q0 0.390625 -0.203125 0.6875q-0.203125 0.296875 -0.640625 0.453125q0.53125 0.171875 0.796875 0.5625q0.28125 0.375 0.28125 0.90625q0 0.734375 -0.515625 1.234375q-0.515625 0.5 -1.359375 0.5q-0.859375 0 -1.375 -0.5q-0.515625 -0.5 -0.515625 -1.25q0 -0.5625 0.28125 -0.9375q0.28125 -0.375 0.8125 -0.515625zm-0.140625 -1.1875q0 0.40625 0.25 0.671875q0.265625 0.25 0.6875 0.25q0.40625 0 0.65625 -0.25q0.265625 -0.265625 0.265625 -0.640625q0 -0.375 -0.265625 -0.640625q-0.265625 -0.265625 -0.671875 -0.265625q-0.390625 0 -0.65625 0.265625q-0.265625 0.25 -0.265625 0.609375zm-0.234375 2.640625q0 0.296875 0.140625 0.578125q0.140625 0.28125 0.421875 0.4375q0.28125 0.15625 0.609375 0.15625q0.5 0 0.828125 -0.3125q0.328125 -0.328125 0.328125 -0.828125q0 -0.515625 -0.34375 -0.84375q-0.328125 -0.328125 -0.828125 -0.328125q-0.5 0 -0.828125 0.328125q-0.328125 0.328125 -0.328125 0.8125z" fill-rule="nonzero"/><path fill="#000000" d="m593.8927 238.34666l0 -5.734375l2.546875 0q0.765625 0 1.15625 0.15625q0.40625 0.15625 0.640625 0.546875q0.234375 0.390625 0.234375 0.859375q0 0.609375 -0.390625 1.03125q-0.390625 0.421875 -1.21875 0.53125q0.296875 0.140625 0.453125 0.28125q0.34375 0.3125 0.640625 0.765625l0.984375 1.5625l-0.953125 0l-0.75 -1.1875q-0.328125 -0.515625 -0.546875 -0.78125q-0.21875 -0.28125 -0.390625 -0.390625q-0.171875 -0.109375 -0.34375 -0.15625q-0.125 -0.03125 -0.421875 -0.03125l-0.875 0l0 2.546875l-0.765625 0zm0.765625 -3.203125l1.625 0q0.515625 0 0.8125 -0.109375q0.296875 -0.109375 0.4375 -0.34375q0.15625 -0.234375 0.15625 -0.515625q0 -0.40625 -0.296875 -0.65625q-0.28125 -0.265625 -0.921875 -0.265625l-1.8125 0l0 1.890625zm7.7617188 1.859375l0.71875 0.09375q-0.171875 0.640625 -0.640625 1.0q-0.453125 0.34375 -1.1875 0.34375q-0.90625 0 -1.4375 -0.5625q-0.53125 -0.5625 -0.53125 -1.578125q0 -1.046875 0.53125 -1.625q0.546875 -0.578125 1.40625 -0.578125q0.828125 0 1.359375 0.578125q0.53125 0.5625 0.53125 1.59375q0 0.0625 -0.015625 0.1875l-3.09375 0q0.046875 0.671875 0.390625 1.046875q0.34375 0.359375 0.875 0.359375q0.375 0 0.640625 -0.203125q0.28125 -0.203125 0.453125 -0.65625zm-2.3125 -1.125l2.3125 0q-0.046875 -0.53125 -0.265625 -0.796875q-0.328125 -0.40625 -0.875 -0.40625q-0.484375 0 -0.8125 0.328125q-0.328125 0.328125 -0.359375 0.875zm3.9023438 2.46875l0 -5.734375l0.703125 0l0 5.734375l-0.703125 0zm4.5117188 0l0 -0.609375q-0.484375 0.703125 -1.3125 0.703125q-0.375 0 -0.703125 -0.140625q-0.3125 -0.140625 -0.46875 -0.34375q-0.140625 -0.21875 -0.203125 -0.53125q-0.046875 -0.203125 -0.046875 -0.65625l0 -2.578125l0.703125 0l0 2.3125q0 0.546875 0.046875 0.734375q0.0625 0.28125 0.265625 0.4375q0.21875 0.15625 0.546875 0.15625q0.3125 0 0.578125 -0.15625q0.28125 -0.171875 0.390625 -0.4375q0.125 -0.28125 0.125 -0.8125l0 -2.234375l0.703125 0l0 4.15625l-0.625 0z" fill-rule="nonzero"/><path fill="#000000" fill-opacity="0.0" d="m414.72702 50.097115l107.55905 0l0 28.251968l-107.55905 0z" fill-rule="evenodd"/><path fill="#000000" d="m431.41452 71.78274l0 -1.578125l5.65625 0l0 4.953125q-1.296875 1.046875 -2.6875 1.578125q-1.375 0.515625 -2.84375 0.515625q-1.96875 0 -3.578125 -0.84375q-1.609375 -0.84375 -2.421875 -2.4375q-0.8125 -1.59375 -0.8125 -3.5625q0 -1.953125 0.8125 -3.640625q0.8125 -1.6875 2.34375 -2.5q1.53125 -0.828125 3.515625 -0.828125q1.453125 0 2.625 0.46875q1.171875 0.46875 1.828125 1.3125q0.671875 0.828125 1.015625 2.171875l-1.59375 0.4375q-0.296875 -1.015625 -0.75 -1.59375q-0.4375 -0.59375 -1.265625 -0.9375q-0.828125 -0.34375 -1.84375 -0.34375q-1.203125 0 -2.09375 0.375q-0.890625 0.359375 -1.4375 0.96875q-0.53125 0.59375 -0.828125 1.3125q-0.515625 1.234375 -0.515625 2.6875q0 1.78125 0.609375 2.984375q0.625 1.203125 1.796875 1.796875q1.171875 0.578125 2.5 0.578125q1.140625 0 2.234375 -0.4375q1.09375 -0.453125 1.65625 -0.953125l0 -2.484375l-3.921875 0zm14.683319 2.125l1.6875 0.203125q-0.40625 1.484375 -1.484375 2.3125q-1.078125 0.8125 -2.765625 0.8125q-2.125 0 -3.375 -1.296875q-1.234375 -1.3125 -1.234375 -3.671875q0 -2.453125 1.25 -3.796875q1.265625 -1.34375 3.265625 -1.34375q1.9375 0 3.15625 1.328125q1.234375 1.3125 1.234375 3.703125q0 0.15625 0 0.4375l-7.21875 0q0.09375 1.59375 0.90625 2.453125q0.8125 0.84375 2.015625 0.84375q0.90625 0 1.546875 -0.46875q0.640625 -0.484375 1.015625 -1.515625zm-5.390625 -2.65625l5.40625 0q-0.109375 -1.21875 -0.625 -1.828125q-0.78125 -0.953125 -2.03125 -0.953125q-1.125 0 -1.90625 0.765625q-0.765625 0.75 -0.84375 2.015625zm9.141327 5.765625l0 -9.671875l1.46875 0l0 1.375q1.0625 -1.59375 3.078125 -1.59375q0.875 0 1.609375 0.3125q0.734375 0.3125 1.09375 0.828125q0.375 0.5 0.515625 1.203125q0.09375 0.453125 0.09375 1.59375l0 5.953125l-1.640625 0l0 -5.890625q0 -1.0 -0.203125 -1.484375q-0.1875 -0.5 -0.671875 -0.796875q-0.484375 -0.296875 -1.140625 -0.296875q-1.046875 0 -1.8125 0.671875q-0.75 0.65625 -0.75 2.515625l0 5.28125l-1.640625 0zm17.000732 -3.109375l1.6875 0.203125q-0.40625 1.484375 -1.484375 2.3125q-1.078125 0.8125 -2.765625 0.8125q-2.125 0 -3.375 -1.296875q-1.234375 -1.3125 -1.234375 -3.671875q0 -2.453125 1.25 -3.796875q1.265625 -1.34375 3.265625 -1.34375q1.9375 0 3.15625 1.328125q1.234375 1.3125 1.234375 3.703125q0 0.15625 0 0.4375l-7.21875 0q0.09375 1.59375 0.90625 2.453125q0.8125 0.84375 2.015625 0.84375q0.90625 0 1.546875 -0.46875q0.640625 -0.484375 1.015625 -1.515625zm-5.390625 -2.65625l5.40625 0q-0.109375 -1.21875 -0.625 -1.828125q-0.78125 -0.953125 -2.03125 -0.953125q-1.125 0 -1.90625 0.765625q-0.765625 0.75 -0.84375 2.015625zm9.125702 5.765625l0 -9.671875l1.46875 0l0 1.46875q0.5625 -1.03125 1.03125 -1.359375q0.484375 -0.328125 1.0625 -0.328125q0.828125 0 1.6875 0.53125l-0.5625 1.515625q-0.609375 -0.359375 -1.203125 -0.359375q-0.546875 0 -0.96875 0.328125q-0.421875 0.328125 -0.609375 0.890625q-0.28125 0.875 -0.28125 1.921875l0 5.0625l-1.625 0zm12.540802 -1.1875q-0.921875 0.765625 -1.765625 1.09375q-0.828125 0.3125 -1.796875 0.3125q-1.59375 0 -2.453125 -0.78125q-0.859375 -0.78125 -0.859375 -1.984375q0 -0.71875 0.328125 -1.296875q0.328125 -0.59375 0.84375 -0.9375q0.53125 -0.359375 1.1875 -0.546875q0.46875 -0.125 1.453125 -0.25q1.984375 -0.234375 2.921875 -0.5625q0.015625 -0.34375 0.015625 -0.421875q0 -1.0 -0.46875 -1.421875q-0.625 -0.546875 -1.875 -0.546875q-1.15625 0 -1.703125 0.40625q-0.546875 0.40625 -0.8125 1.421875l-1.609375 -0.21875q0.21875 -1.015625 0.71875 -1.640625q0.5 -0.640625 1.453125 -0.984375q0.953125 -0.34375 2.1875 -0.34375q1.25 0 2.015625 0.296875q0.78125 0.28125 1.140625 0.734375q0.375 0.4375 0.515625 1.109375q0.078125 0.421875 0.078125 1.515625l0 2.1875q0 2.28125 0.109375 2.890625q0.109375 0.59375 0.40625 1.15625l-1.703125 0q-0.265625 -0.515625 -0.328125 -1.1875zm-0.140625 -3.671875q-0.890625 0.375 -2.671875 0.625q-1.015625 0.140625 -1.4375 0.328125q-0.421875 0.1875 -0.65625 0.53125q-0.21875 0.34375 -0.21875 0.78125q0 0.65625 0.5 1.09375q0.5 0.4375 1.453125 0.4375q0.9375 0 1.671875 -0.40625q0.75 -0.421875 1.09375 -1.140625q0.265625 -0.5625 0.265625 -1.640625l0 -0.609375zm7.7819824 3.390625l0.234375 1.453125q-0.6875 0.140625 -1.234375 0.140625q-0.890625 0 -1.390625 -0.28125q-0.484375 -0.28125 -0.6875 -0.734375q-0.203125 -0.46875 -0.203125 -1.9375l0 -5.578125l-1.203125 0l0 -1.265625l1.203125 0l0 -2.390625l1.625 -0.984375l0 3.375l1.65625 0l0 1.265625l-1.65625 0l0 5.671875q0 0.6875 0.078125 0.890625q0.09375 0.203125 0.28125 0.328125q0.203125 0.109375 0.578125 0.109375q0.265625 0 0.71875 -0.0625zm0.9957886 -3.375q0 -2.6875 1.484375 -3.96875q1.25 -1.078125 3.046875 -1.078125q2.0 0 3.265625 1.3125q1.265625 1.296875 1.265625 3.609375q0 1.859375 -0.5625 2.9375q-0.5625 1.0625 -1.640625 1.65625q-1.0625 0.59375 -2.328125 0.59375q-2.03125 0 -3.28125 -1.296875q-1.25 -1.3125 -1.25 -3.765625zm1.6875 0q0 1.859375 0.796875 2.796875q0.8125 0.921875 2.046875 0.921875q1.21875 0 2.03125 -0.921875q0.8125 -0.9375 0.8125 -2.84375q0 -1.796875 -0.8125 -2.71875q-0.8125 -0.921875 -2.03125 -0.921875q-1.234375 0 -2.046875 0.921875q-0.796875 0.90625 -0.796875 2.765625zm9.281982 4.84375l0 -9.671875l1.46875 0l0 1.46875q0.5625 -1.03125 1.03125 -1.359375q0.484375 -0.328125 1.0625 -0.328125q0.828125 0 1.6875 0.53125l-0.5625 1.515625q-0.609375 -0.359375 -1.203125 -0.359375q-0.546875 0 -0.96875 0.328125q-0.421875 0.328125 -0.609375 0.890625q-0.28125 0.875 -0.28125 1.921875l0 5.0625l-1.625 0z" fill-rule="nonzero"/><path fill="#b6d7a8" d="m589.8478 455.75067l41.19684 0l0 222.58264l-41.19684 0z" fill-rule="evenodd"/><path stroke="#000000" stroke-width="1.0" stroke-linejoin="round" stroke-linecap="butt" d="m589.8478 455.75067l41.19684 0l0 222.58264l-41.19684 0z" fill-rule="evenodd"/><path fill="#000000" d="m604.20715 563.37573l0 0.90625l-5.03125 0q-0.015625 -0.34375 0.109375 -0.65625q0.1875 -0.515625 0.609375 -1.015625q0.421875 -0.5 1.234375 -1.140625q1.234375 -1.03125 1.671875 -1.625q0.4375 -0.59375 0.4375 -1.125q0 -0.5625 -0.40625 -0.9375q-0.390625 -0.390625 -1.03125 -0.390625q-0.671875 0 -1.078125 0.40625q-0.40625 0.40625 -0.40625 1.125l-0.96875 -0.09375q0.09375 -1.078125 0.734375 -1.640625q0.65625 -0.5625 1.734375 -0.5625q1.109375 0 1.75 0.609375q0.640625 0.609375 0.640625 1.5q0 0.46875 -0.1875 0.90625q-0.1875 0.4375 -0.625 0.9375q-0.4375 0.484375 -1.453125 1.328125q-0.828125 0.71875 -1.078125 0.96875q-0.234375 0.25 -0.390625 0.5l3.734375 0zm1.0046387 -1.09375l0.984375 -0.078125q0.109375 0.71875 0.5 1.078125q0.40625 0.359375 0.96875 0.359375q0.671875 0 1.140625 -0.5q0.46875 -0.515625 0.46875 -1.359375q0 -0.796875 -0.453125 -1.265625q-0.4375 -0.46875 -1.171875 -0.46875q-0.453125 0 -0.8125 0.21875q-0.359375 0.203125 -0.578125 0.53125l-0.875 -0.125l0.734375 -3.921875l3.796875 0l0 0.90625l-3.046875 0l-0.40625 2.046875q0.6875 -0.484375 1.4375 -0.484375q1.0 0 1.6875 0.703125q0.6875 0.6875 0.6875 1.765625q0 1.046875 -0.609375 1.796875q-0.734375 0.921875 -2.0 0.921875q-1.03125 0 -1.703125 -0.578125q-0.65625 -0.578125 -0.75 -1.546875zm10.785828 -3.765625l-0.921875 0.078125q-0.125 -0.546875 -0.359375 -0.796875q-0.375 -0.40625 -0.9375 -0.40625q-0.4375 0 -0.78125 0.25q-0.4375 0.328125 -0.703125 0.953125q-0.25 0.609375 -0.265625 1.75q0.34375 -0.515625 0.828125 -0.765625q0.5 -0.25 1.03125 -0.25q0.9375 0 1.59375 0.703125q0.65625 0.6875 0.65625 1.765625q0 0.71875 -0.3125 1.34375q-0.3125 0.609375 -0.859375 0.9375q-0.53125 0.328125 -1.21875 0.328125q-1.171875 0 -1.90625 -0.859375q-0.734375 -0.859375 -0.734375 -2.828125q0 -2.21875 0.8125 -3.21875q0.71875 -0.875 1.921875 -0.875q0.890625 0 1.46875 0.5q0.578125 0.5 0.6875 1.390625zm-3.8125 3.296875q0 0.484375 0.203125 0.921875q0.203125 0.4375 0.5625 0.671875q0.375 0.234375 0.78125 0.234375q0.59375 0 1.015625 -0.46875q0.4375 -0.484375 0.4375 -1.3125q0 -0.78125 -0.421875 -1.234375q-0.421875 -0.46875 -1.0625 -0.46875q-0.640625 0 -1.078125 0.46875q-0.4375 0.453125 -0.4375 1.1875z" fill-rule="nonzero"/><path fill="#000000" d="m599.6915 577.282l0 -7.625l3.375 0q1.015625 0 1.546875 0.203125q0.53125 0.203125 0.84375 0.734375q0.328125 0.515625 0.328125 1.140625q0 0.8125 -0.53125 1.375q-0.515625 0.546875 -1.625 0.703125q0.40625 0.1875 0.609375 0.375q0.453125 0.40625 0.84375 1.015625l1.328125 2.078125l-1.265625 0l-1.015625 -1.59375q-0.4375 -0.6875 -0.734375 -1.046875q-0.28125 -0.359375 -0.515625 -0.5q-0.21875 -0.15625 -0.453125 -0.203125q-0.171875 -0.046875 -0.5625 -0.046875l-1.171875 0l0 3.390625l-1.0 0zm1.0 -4.265625l2.171875 0q0.6875 0 1.078125 -0.140625q0.390625 -0.140625 0.59375 -0.453125q0.203125 -0.3125 0.203125 -0.6875q0 -0.546875 -0.390625 -0.890625q-0.390625 -0.34375 -1.234375 -0.34375l-2.421875 0l0 2.515625zm10.336243 2.484375l0.96875 0.125q-0.234375 0.84375 -0.859375 1.3125q-0.609375 0.46875 -1.578125 0.46875q-1.203125 0 -1.921875 -0.75q-0.703125 -0.75 -0.703125 -2.09375q0 -1.390625 0.71875 -2.15625q0.71875 -0.78125 1.859375 -0.78125q1.109375 0 1.8125 0.765625q0.703125 0.75 0.703125 2.125q0 0.078125 0 0.234375l-4.125 0q0.046875 0.921875 0.515625 1.40625q0.46875 0.484375 1.15625 0.484375q0.515625 0 0.875 -0.265625q0.359375 -0.28125 0.578125 -0.875zm-3.078125 -1.515625l3.09375 0q-0.0625 -0.6875 -0.359375 -1.046875q-0.453125 -0.53125 -1.15625 -0.53125q-0.640625 0 -1.09375 0.4375q-0.4375 0.421875 -0.484375 1.140625zm5.2077026 3.296875l0 -7.625l0.9375 0l0 7.625l-0.9375 0zm6.0081177 0l0 -0.8125q-0.65625 0.9375 -1.75 0.9375q-0.5 0 -0.921875 -0.1875q-0.421875 -0.1875 -0.625 -0.46875q-0.203125 -0.28125 -0.296875 -0.703125q-0.046875 -0.265625 -0.046875 -0.875l0 -3.421875l0.9375 0l0 3.0625q0 0.734375 0.046875 1.0q0.09375 0.359375 0.375 0.578125q0.296875 0.203125 0.703125 0.203125q0.421875 0 0.796875 -0.203125q0.375 -0.21875 0.515625 -0.59375q0.15625 -0.375 0.15625 -1.078125l0 -2.96875l0.9375 0l0 5.53125l-0.828125 0z" fill-rule="nonzero"/><path fill="#b6d7a8" d="m495.0538 455.75067l41.19687 0l0 222.58264l-41.19687 0z" fill-rule="evenodd"/><path stroke="#000000" stroke-width="1.0" stroke-linejoin="round" stroke-linecap="butt" d="m495.0538 455.75067l41.19687 0l0 222.58264l-41.19687 0z" fill-rule="evenodd"/><path fill="#000000" d="m509.41318 563.37573l0 0.90625l-5.03125 0q-0.015625 -0.34375 0.109375 -0.65625q0.1875 -0.515625 0.609375 -1.015625q0.421875 -0.5 1.234375 -1.140625q1.234375 -1.03125 1.671875 -1.625q0.4375 -0.59375 0.4375 -1.125q0 -0.5625 -0.40625 -0.9375q-0.390625 -0.390625 -1.03125 -0.390625q-0.671875 0 -1.078125 0.40625q-0.40625 0.40625 -0.40625 1.125l-0.96875 -0.09375q0.09375 -1.078125 0.734375 -1.640625q0.65625 -0.5625 1.734375 -0.5625q1.109375 0 1.75 0.609375q0.640625 0.609375 0.640625 1.5q0 0.46875 -0.1875 0.90625q-0.1875 0.4375 -0.625 0.9375q-0.4375 0.484375 -1.453125 1.328125q-0.828125 0.71875 -1.078125 0.96875q-0.234375 0.25 -0.390625 0.5l3.734375 0zm1.0046387 -1.09375l0.984375 -0.078125q0.109375 0.71875 0.5 1.078125q0.40621948 0.359375 0.9687195 0.359375q0.671875 0 1.140625 -0.5q0.46875 -0.515625 0.46875 -1.359375q0 -0.796875 -0.453125 -1.265625q-0.4375 -0.46875 -1.171875 -0.46875q-0.453125 0 -0.8125 0.21875q-0.35934448 0.203125 -0.5780945 0.53125l-0.875 -0.125l0.734375 -3.921875l3.7968445 0l0 0.90625l-3.046875 0l-0.40621948 2.046875q0.6874695 -0.484375 1.4374695 -0.484375q1.0 0 1.6875 0.703125q0.6875 0.6875 0.6875 1.765625q0 1.046875 -0.609375 1.796875q-0.734375 0.921875 -2.0 0.921875q-1.0312195 0 -1.7030945 -0.578125q-0.65625 -0.578125 -0.75 -1.546875zm10.785858 -3.765625l-0.921875 0.078125q-0.125 -0.546875 -0.359375 -0.796875q-0.375 -0.40625 -0.9375 -0.40625q-0.4375 0 -0.78125 0.25q-0.4375 0.328125 -0.703125 0.953125q-0.25 0.609375 -0.265625 1.75q0.34375 -0.515625 0.828125 -0.765625q0.5 -0.25 1.03125 -0.25q0.9375 0 1.59375 0.703125q0.65625 0.6875 0.65625 1.765625q0 0.71875 -0.3125 1.34375q-0.3125 0.609375 -0.859375 0.9375q-0.53125 0.328125 -1.21875 0.328125q-1.171875 0 -1.90625 -0.859375q-0.734375 -0.859375 -0.734375 -2.828125q0 -2.21875 0.8125 -3.21875q0.71875 -0.875 1.921875 -0.875q0.890625 0 1.46875 0.5q0.578125 0.5 0.6875 1.390625zm-3.8125 3.296875q0 0.484375 0.203125 0.921875q0.203125 0.4375 0.5625 0.671875q0.375 0.234375 0.78125 0.234375q0.59375 0 1.015625 -0.46875q0.4375 -0.484375 0.4375 -1.3125q0 -0.78125 -0.421875 -1.234375q-0.421875 -0.46875 -1.0625 -0.46875q-0.640625 0 -1.078125 0.46875q-0.4375 0.453125 -0.4375 1.1875z" fill-rule="nonzero"/><path fill="#000000" d="m504.89755 577.282l0 -7.625l3.375 0q1.015625 0 1.546875 0.203125q0.53125 0.203125 0.84375 0.734375q0.328125 0.515625 0.328125 1.140625q0 0.8125 -0.53125 1.375q-0.515625 0.546875 -1.625 0.703125q0.40625 0.1875 0.609375 0.375q0.453125 0.40625 0.84375 1.015625l1.328125 2.078125l-1.265625 0l-1.015625 -1.59375q-0.4375 -0.6875 -0.734375 -1.046875q-0.28125 -0.359375 -0.515625 -0.5q-0.21875 -0.15625 -0.453125 -0.203125q-0.171875 -0.046875 -0.5625 -0.046875l-1.171875 0l0 3.390625l-1.0 0zm1.0 -4.265625l2.171875 0q0.6875 0 1.078125 -0.140625q0.390625 -0.140625 0.59375 -0.453125q0.203125 -0.3125 0.203125 -0.6875q0 -0.546875 -0.390625 -0.890625q-0.390625 -0.34375 -1.234375 -0.34375l-2.421875 0l0 2.515625zm10.336212 2.484375l0.96875 0.125q-0.234375 0.84375 -0.859375 1.3125q-0.609375 0.46875 -1.578125 0.46875q-1.203125 0 -1.921875 -0.75q-0.703125 -0.75 -0.703125 -2.09375q0 -1.390625 0.71875 -2.15625q0.71875 -0.78125 1.859375 -0.78125q1.109375 0 1.8125 0.765625q0.703125 0.75 0.703125 2.125q0 0.078125 0 0.234375l-4.125 0q0.046875 0.921875 0.515625 1.40625q0.46875 0.484375 1.15625 0.484375q0.515625 0 0.875 -0.265625q0.359375 -0.28125 0.578125 -0.875zm-3.078125 -1.515625l3.09375 0q-0.0625 -0.6875 -0.359375 -1.046875q-0.453125 -0.53125 -1.15625 -0.53125q-0.640625 0 -1.09375 0.4375q-0.4375 0.421875 -0.484375 1.140625zm5.2077637 3.296875l0 -7.625l0.9375 0l0 7.625l-0.9375 0zm6.0081177 0l0 -0.8125q-0.65625 0.9375 -1.75 0.9375q-0.5 0 -0.921875 -0.1875q-0.421875 -0.1875 -0.625 -0.46875q-0.203125 -0.28125 -0.296875 -0.703125q-0.046875 -0.265625 -0.046875 -0.875l0 -3.421875l0.9375 0l0 3.0625q0 0.734375 0.046875 1.0q0.09375 0.359375 0.375 0.578125q0.296875 0.203125 0.703125 0.203125q0.421875 0 0.796875 -0.203125q0.375 -0.21875 0.515625 -0.59375q0.15625 -0.375 0.15625 -1.078125l0 -2.96875l0.9375 0l0 5.53125l-0.828125 0z" fill-rule="nonzero"/><path fill="#b6d7a8" d="m396.53018 455.75067l41.19684 0l0 222.58264l-41.19684 0z" fill-rule="evenodd"/><path stroke="#000000" stroke-width="1.0" stroke-linejoin="round" stroke-linecap="butt" d="m396.53018 455.75067l41.19684 0l0 222.58264l-41.19684 0z" fill-rule="evenodd"/><path fill="#000000" d="m406.15518 564.722l0 -5.734375l1.96875 0q0.671875 0 1.015625 0.09375q0.5 0.109375 0.84375 0.40625q0.453125 0.375 0.671875 0.984375q0.234375 0.59375 0.234375 1.359375q0 0.640625 -0.15625 1.15625q-0.15625 0.5 -0.390625 0.828125q-0.234375 0.328125 -0.53125 0.515625q-0.28125 0.1875 -0.6875 0.296875q-0.390625 0.09375 -0.90625 0.09375l-2.0625 0zm0.75 -0.671875l1.21875 0q0.578125 0 0.890625 -0.109375q0.328125 -0.109375 0.515625 -0.296875q0.265625 -0.265625 0.421875 -0.71875q0.15625 -0.46875 0.15625 -1.109375q0 -0.90625 -0.296875 -1.375q-0.296875 -0.484375 -0.71875 -0.65625q-0.3125 -0.109375 -0.984375 -0.109375l-1.203125 0l0 4.375zm4.9179688 0.671875l0 -4.15625l0.640625 0l0 0.640625q0.234375 -0.453125 0.4375 -0.59375q0.21875 -0.140625 0.453125 -0.140625q0.359375 0 0.734375 0.234375l-0.25 0.65625q-0.25 -0.15625 -0.515625 -0.15625q-0.234375 0 -0.421875 0.140625q-0.171875 0.140625 -0.25 0.375q-0.125 0.375 -0.125 0.828125l0 2.171875l-0.703125 0zm2.4140625 -2.078125q0 -1.15625 0.640625 -1.703125q0.53125 -0.46875 1.3125 -0.46875q0.84375 0 1.390625 0.5625q0.546875 0.5625 0.546875 1.546875q0 0.8125 -0.25 1.265625q-0.234375 0.453125 -0.703125 0.71875q-0.453125 0.25 -0.984375 0.25q-0.875 0 -1.421875 -0.5625q-0.53125 -0.5625 -0.53125 -1.609375zm0.71875 0q0 0.796875 0.34375 1.203125q0.359375 0.390625 0.890625 0.390625q0.515625 0 0.859375 -0.390625q0.359375 -0.40625 0.359375 -1.21875q0 -0.78125 -0.359375 -1.171875q-0.34375 -0.390625 -0.859375 -0.390625q-0.53125 0 -0.890625 0.390625q-0.34375 0.390625 -0.34375 1.1875zm3.9960938 3.671875l0 -5.75l0.640625 0l0 0.546875q0.21875 -0.3125 0.5 -0.46875q0.296875 -0.171875 0.703125 -0.171875q0.53125 0 0.9375 0.28125q0.40625 0.265625 0.609375 0.765625q0.203125 0.5 0.203125 1.09375q0 0.640625 -0.234375 1.15625q-0.21875 0.5 -0.65625 0.78125q-0.4375 0.265625 -0.90625 0.265625q-0.359375 0 -0.640625 -0.140625q-0.28125 -0.15625 -0.453125 -0.390625l0 2.03125l-0.703125 0zm0.640625 -3.640625q0 0.796875 0.3125 1.1875q0.328125 0.375 0.796875 0.375q0.46875 0 0.796875 -0.390625q0.328125 -0.40625 0.328125 -1.234375q0 -0.796875 -0.328125 -1.1875q-0.3125 -0.390625 -0.765625 -0.390625q-0.453125 0 -0.796875 0.421875q-0.34375 0.40625 -0.34375 1.21875zm3.5429688 -0.03125q0 -1.15625 0.640625 -1.703125q0.53125 -0.46875 1.3125 -0.46875q0.84375 0 1.390625 0.5625q0.546875 0.5625 0.546875 1.546875q0 0.8125 -0.25 1.265625q-0.234375 0.453125 -0.703125 0.71875q-0.453125 0.25 -0.984375 0.25q-0.875 0 -1.421875 -0.5625q-0.53125 -0.5625 -0.53125 -1.609375zm0.71875 0q0 0.796875 0.34375 1.203125q0.359375 0.390625 0.890625 0.390625q0.515625 0 0.859375 -0.390625q0.359375 -0.40625 0.359375 -1.21875q0 -0.78125 -0.359375 -1.171875q-0.34375 -0.390625 -0.859375 -0.390625q-0.53125 0 -0.890625 0.390625q-0.34375 0.390625 -0.34375 1.1875z" fill-rule="nonzero"/><path fill="#000000" d="m408.78018 574.722l0 -0.609375q-0.484375 0.703125 -1.3125 0.703125q-0.375 0 -0.703125 -0.140625q-0.3125 -0.140625 -0.46875 -0.34375q-0.140625 -0.21875 -0.203125 -0.53125q-0.046875 -0.203125 -0.046875 -0.65625l0 -2.578125l0.703125 0l0 2.3125q0 0.546875 0.046875 0.734375q0.0625 0.28125 0.265625 0.4375q0.21875 0.15625 0.546875 0.15625q0.3125 0 0.578125 -0.15625q0.28125 -0.171875 0.390625 -0.4375q0.125 -0.28125 0.125 -0.8125l0 -2.234375l0.703125 0l0 4.15625l-0.625 0zm3.2617188 -0.625l0.109375 0.609375q-0.296875 0.078125 -0.53125 0.078125q-0.390625 0 -0.609375 -0.125q-0.203125 -0.125 -0.296875 -0.3125q-0.078125 -0.203125 -0.078125 -0.84375l0 -2.390625l-0.515625 0l0 -0.546875l0.515625 0l0 -1.015625l0.703125 -0.421875l0 1.4375l0.703125 0l0 0.546875l-0.703125 0l0 2.4375q0 0.296875 0.03125 0.390625q0.046875 0.078125 0.125 0.125q0.078125 0.046875 0.234375 0.046875q0.125 0 0.3125 -0.015625zm2.7109375 -2.203125q0 -1.015625 0.203125 -1.625q0.21875 -0.625 0.625 -0.953125q0.421875 -0.34375 1.046875 -0.34375q0.453125 0 0.796875 0.1875q0.359375 0.1875 0.578125 0.53125q0.234375 0.34375 0.359375 0.859375q0.125 0.5 0.125 1.34375q0 1.015625 -0.203125 1.640625q-0.203125 0.609375 -0.625 0.953125q-0.40625 0.328125 -1.03125 0.328125q-0.828125 0 -1.296875 -0.59375q-0.578125 -0.71875 -0.578125 -2.328125zm0.734375 0q0 1.40625 0.328125 1.875q0.328125 0.46875 0.8125 0.46875q0.484375 0 0.8125 -0.46875q0.328125 -0.46875 0.328125 -1.875q0 -1.40625 -0.328125 -1.875q-0.328125 -0.46875 -0.828125 -0.46875q-0.484375 0 -0.765625 0.40625q-0.359375 0.53125 -0.359375 1.9375zm4.1210938 2.828125l0 -0.796875l0.796875 0l0 0.796875l-0.796875 0zm5.5195312 -0.671875l0 0.671875l-3.78125 0q-0.015625 -0.25 0.078125 -0.484375q0.140625 -0.390625 0.453125 -0.765625q0.328125 -0.375 0.921875 -0.875q0.9375 -0.765625 1.265625 -1.203125q0.328125 -0.453125 0.328125 -0.84375q0 -0.421875 -0.296875 -0.703125q-0.296875 -0.296875 -0.78125 -0.296875q-0.5 0 -0.8125 0.3125q-0.296875 0.296875 -0.3125 0.84375l-0.71875 -0.078125q0.078125 -0.8125 0.5625 -1.234375q0.484375 -0.421875 1.296875 -0.421875q0.828125 0 1.296875 0.453125q0.484375 0.453125 0.484375 1.140625q0 0.34375 -0.140625 0.671875q-0.140625 0.328125 -0.46875 0.703125q-0.3125 0.359375 -1.078125 1.0q-0.625 0.53125 -0.8125 0.71875q-0.171875 0.1875 -0.296875 0.390625l2.8125 0z" fill-rule="nonzero"/><path fill="#b6d7a8" d="m305.71915 455.75067l44.503937 0l0 222.58264l-44.503937 0z" fill-rule="evenodd"/><path stroke="#000000" stroke-width="1.0" stroke-linejoin="round" stroke-linecap="butt" d="m305.71915 455.75067l44.503937 0l0 222.58264l-44.503937 0z" fill-rule="evenodd"/><path fill="#000000" d="m315.34415 564.722l0 -5.734375l1.96875 0q0.671875 0 1.015625 0.09375q0.5 0.109375 0.84375 0.40625q0.453125 0.375 0.671875 0.984375q0.234375 0.59375 0.234375 1.359375q0 0.640625 -0.15625 1.15625q-0.15625 0.5 -0.390625 0.828125q-0.234375 0.328125 -0.53125 0.515625q-0.28125 0.1875 -0.6875 0.296875q-0.390625 0.09375 -0.90625 0.09375l-2.0625 0zm0.75 -0.671875l1.21875 0q0.578125 0 0.890625 -0.109375q0.328125 -0.109375 0.515625 -0.296875q0.265625 -0.265625 0.421875 -0.71875q0.15625 -0.46875 0.15625 -1.109375q0 -0.90625 -0.296875 -1.375q-0.296875 -0.484375 -0.71875 -0.65625q-0.3125 -0.109375 -0.984375 -0.109375l-1.203125 0l0 4.375zm7.7773438 -0.671875l0.71875 0.09375q-0.171875 0.640625 -0.640625 1.0q-0.453125 0.34375 -1.1875 0.34375q-0.90625 0 -1.4375 -0.5625q-0.53125 -0.5625 -0.53125 -1.578125q0 -1.046875 0.53125 -1.625q0.546875 -0.578125 1.40625 -0.578125q0.828125 0 1.359375 0.578125q0.53125 0.5625 0.53125 1.59375q0 0.0625 -0.015625 0.1875l-3.09375 0q0.046875 0.671875 0.390625 1.046875q0.34375 0.359375 0.875 0.359375q0.375 0 0.640625 -0.203125q0.28125 -0.203125 0.453125 -0.65625zm-2.3125 -1.125l2.3125 0q-0.046875 -0.53125 -0.265625 -0.796875q-0.328125 -0.40625 -0.875 -0.40625q-0.484375 0 -0.8125 0.328125q-0.328125 0.328125 -0.359375 0.875zm3.9179688 2.46875l0 -4.15625l0.625 0l0 0.59375q0.46875 -0.6875 1.328125 -0.6875q0.375 0 0.6875 0.140625q0.3125 0.140625 0.46875 0.359375q0.15625 0.21875 0.21875 0.515625q0.046875 0.1875 0.046875 0.6875l0 2.546875l-0.703125 0l0 -2.53125q0 -0.421875 -0.09375 -0.625q-0.078125 -0.21875 -0.296875 -0.34375q-0.203125 -0.140625 -0.484375 -0.140625q-0.4375 0 -0.765625 0.296875q-0.328125 0.28125 -0.328125 1.078125l0 2.265625l-0.703125 0zm4.1679688 -1.234375l0.6875 -0.109375q0.0625 0.40625 0.328125 0.640625q0.265625 0.21875 0.75 0.21875q0.484375 0 0.71875 -0.1875q0.234375 -0.203125 0.234375 -0.46875q0 -0.25 -0.203125 -0.375q-0.140625 -0.09375 -0.71875 -0.25q-0.78125 -0.1875 -1.078125 -0.328125q-0.296875 -0.140625 -0.453125 -0.390625q-0.15625 -0.265625 -0.15625 -0.5625q0 -0.28125 0.125 -0.515625q0.140625 -0.234375 0.359375 -0.390625q0.15625 -0.125 0.4375 -0.203125q0.28125 -0.09375 0.609375 -0.09375q0.484375 0 0.859375 0.140625q0.375 0.140625 0.546875 0.390625q0.171875 0.234375 0.234375 0.640625l-0.6875 0.09375q-0.046875 -0.328125 -0.265625 -0.5q-0.21875 -0.1875 -0.640625 -0.1875q-0.484375 0 -0.6875 0.171875q-0.203125 0.15625 -0.203125 0.375q0 0.125 0.078125 0.234375q0.09375 0.125 0.28125 0.1875q0.09375 0.046875 0.609375 0.1875q0.75 0.203125 1.046875 0.328125q0.296875 0.125 0.453125 0.375q0.171875 0.234375 0.171875 0.59375q0 0.34375 -0.203125 0.65625q-0.203125 0.3125 -0.59375 0.484375q-0.375 0.171875 -0.875 0.171875q-0.796875 0 -1.234375 -0.328125q-0.421875 -0.34375 -0.53125 -1.0zm7.125 -0.109375l0.71875 0.09375q-0.171875 0.640625 -0.640625 1.0q-0.453125 0.34375 -1.1875 0.34375q-0.90625 0 -1.4375 -0.5625q-0.53125 -0.5625 -0.53125 -1.578125q0 -1.046875 0.53125 -1.625q0.546875 -0.578125 1.40625 -0.578125q0.828125 0 1.359375 0.578125q0.53125 0.5625 0.53125 1.59375q0 0.0625 -0.015625 0.1875l-3.09375 0q0.046875 0.671875 0.390625 1.046875q0.34375 0.359375 0.875 0.359375q0.375 0 0.640625 -0.203125q0.28125 -0.203125 0.453125 -0.65625zm-2.3125 -1.125l2.3125 0q-0.046875 -0.53125 -0.265625 -0.796875q-0.328125 -0.40625 -0.875 -0.40625q-0.484375 0 -0.8125 0.328125q-0.328125 0.328125 -0.359375 0.875z" fill-rule="nonzero"/><path fill="#000000" d="m317.70352 574.722l-0.703125 0l0 -4.484375q-0.25 0.25 -0.671875 0.5q-0.40625 0.234375 -0.734375 0.34375l0 -0.671875q0.59375 -0.28125 1.03125 -0.671875q0.4375 -0.390625 0.625 -0.765625l0.453125 0l0 5.75z" fill-rule="nonzero"/><path fill="#000000" fill-opacity="0.0" d="m401.8924 380.87665l133.22833 0l0 28.251953l-133.22833 0z" fill-rule="evenodd"/><path fill="#000000" d="m412.3299 407.79663l0 -13.359375l4.609375 0q1.546875 0 2.375 0.203125q1.140625 0.25 1.953125 0.953125q1.0625 0.890625 1.578125 2.28125q0.53125 1.390625 0.53125 3.171875q0 1.515625 -0.359375 2.703125q-0.359375 1.171875 -0.921875 1.9375q-0.546875 0.765625 -1.203125 1.21875q-0.65625 0.4375 -1.59375 0.671875q-0.9375 0.21875 -2.140625 0.21875l-4.828125 0zm1.765625 -1.578125l2.859375 0q1.3125 0 2.0625 -0.234375q0.75 -0.25 1.203125 -0.703125q0.625 -0.625 0.96875 -1.6875q0.359375 -1.0625 0.359375 -2.578125q0 -2.09375 -0.6875 -3.21875q-0.6875 -1.125 -1.671875 -1.5q-0.703125 -0.28125 -2.28125 -0.28125l-2.8125 0l0 10.203125zm11.504181 -9.890625l0 -1.890625l1.640625 0l0 1.890625l-1.640625 0zm0 11.46875l0 -9.671875l1.640625 0l0 9.671875l-1.640625 0zm3.4885864 -2.890625l1.625 -0.25q0.125 0.96875 0.75 1.5q0.625 0.515625 1.75 0.515625q1.125 0 1.671875 -0.453125q0.546875 -0.46875 0.546875 -1.09375q0 -0.546875 -0.484375 -0.875q-0.328125 -0.21875 -1.671875 -0.546875q-1.8125 -0.46875 -2.515625 -0.796875q-0.6875 -0.328125 -1.046875 -0.90625q-0.359375 -0.59375 -0.359375 -1.3125q0 -0.640625 0.296875 -1.1875q0.296875 -0.5625 0.8125 -0.921875q0.375 -0.28125 1.03125 -0.46875q0.671875 -0.203125 1.421875 -0.203125q1.140625 0 2.0 0.328125q0.859375 0.328125 1.265625 0.890625q0.421875 0.5625 0.578125 1.5l-1.609375 0.21875q-0.109375 -0.75 -0.640625 -1.171875q-0.515625 -0.421875 -1.46875 -0.421875q-1.140625 0 -1.625 0.375q-0.46875 0.375 -0.46875 0.875q0 0.3125 0.1875 0.578125q0.203125 0.265625 0.640625 0.4375q0.234375 0.09375 1.4375 0.421875q1.75 0.453125 2.4375 0.75q0.6875 0.296875 1.078125 0.859375q0.390625 0.5625 0.390625 1.40625q0 0.828125 -0.484375 1.546875q-0.46875 0.71875 -1.375 1.125q-0.90625 0.390625 -2.046875 0.390625q-1.875 0 -2.875 -0.78125q-0.984375 -0.78125 -1.25 -2.328125zm16.296875 -0.65625l1.609375 0.21875q-0.265625 1.65625 -1.359375 2.609375q-1.078125 0.9375 -2.671875 0.9375q-1.984375 0 -3.1875 -1.296875q-1.203125 -1.296875 -1.203125 -3.71875q0 -1.578125 0.515625 -2.75q0.515625 -1.171875 1.578125 -1.75q1.0625 -0.59375 2.3125 -0.59375q1.578125 0 2.578125 0.796875q1.0 0.796875 1.28125 2.265625l-1.59375 0.234375q-0.234375 -0.96875 -0.8125 -1.453125q-0.578125 -0.5 -1.390625 -0.5q-1.234375 0 -2.015625 0.890625q-0.78125 0.890625 -0.78125 2.8125q0 1.953125 0.75 2.84375q0.75 0.875 1.953125 0.875q0.96875 0 1.609375 -0.59375q0.65625 -0.59375 0.828125 -1.828125zm3.0 3.546875l0 -9.671875l1.46875 0l0 1.46875q0.5625 -1.03125 1.03125 -1.359375q0.484375 -0.328125 1.0625 -0.328125q0.828125 0 1.6875 0.53125l-0.5625 1.515625q-0.609375 -0.359375 -1.203125 -0.359375q-0.546875 0 -0.96875 0.328125q-0.421875 0.328125 -0.609375 0.890625q-0.28125 0.875 -0.28125 1.921875l0 5.0625l-1.625 0zm6.228302 -11.46875l0 -1.890625l1.640625 0l0 1.890625l-1.640625 0zm0 11.46875l0 -9.671875l1.640625 0l0 9.671875l-1.640625 0zm4.144806 0l0 -9.671875l1.46875 0l0 1.359375q0.453125 -0.71875 1.203125 -1.140625q0.765625 -0.4375 1.71875 -0.4375q1.078125 0 1.765625 0.453125q0.6875 0.4375 0.96875 1.234375q1.15625 -1.6875 2.984375 -1.6875q1.453125 0 2.21875 0.796875q0.78125 0.796875 0.78125 2.453125l0 6.640625l-1.640625 0l0 -6.09375q0 -0.984375 -0.15625 -1.40625q-0.15625 -0.4375 -0.578125 -0.703125q-0.421875 -0.265625 -0.984375 -0.265625q-1.015625 0 -1.6875 0.6875q-0.671875 0.671875 -0.671875 2.15625l0 5.625l-1.640625 0l0 -6.28125q0 -1.09375 -0.40625 -1.640625q-0.40625 -0.546875 -1.3125 -0.546875q-0.6875 0 -1.28125 0.359375q-0.59375 0.359375 -0.859375 1.0625q-0.25 0.703125 -0.25 2.03125l0 5.015625l-1.640625 0zm15.540802 -11.46875l0 -1.890625l1.640625 0l0 1.890625l-1.640625 0zm0 11.46875l0 -9.671875l1.640625 0l0 9.671875l-1.640625 0zm4.1448364 0l0 -9.671875l1.46875 0l0 1.375q1.0625 -1.59375 3.078125 -1.59375q0.875 0 1.609375 0.3125q0.734375 0.3125 1.09375 0.828125q0.375 0.5 0.515625 1.203125q0.09375 0.453125 0.09375 1.59375l0 5.953125l-1.640625 0l0 -5.890625q0 -1.0 -0.203125 -1.484375q-0.1875 -0.5 -0.671875 -0.796875q-0.484375 -0.296875 -1.140625 -0.296875q-1.046875 0 -1.8125 0.671875q-0.75 0.65625 -0.75 2.515625l0 5.28125l-1.640625 0zm16.688202 -1.1875q-0.921875 0.765625 -1.765625 1.09375q-0.828125 0.3125 -1.796875 0.3125q-1.59375 0 -2.453125 -0.78125q-0.859375 -0.78125 -0.859375 -1.984375q0 -0.71875 0.328125 -1.296875q0.328125 -0.59375 0.84375 -0.9375q0.53125 -0.359375 1.1875 -0.546875q0.46875 -0.125 1.453125 -0.25q1.984375 -0.234375 2.921875 -0.5625q0.015625 -0.34375 0.015625 -0.421875q0 -1.0 -0.46875 -1.421875q-0.625 -0.546875 -1.875 -0.546875q-1.15625 0 -1.703125 0.40625q-0.546875 0.40625 -0.8125 1.421875l-1.609375 -0.21875q0.21875 -1.015625 0.71875 -1.640625q0.5 -0.640625 1.453125 -0.984375q0.953125 -0.34375 2.1875 -0.34375q1.25 0 2.015625 0.296875q0.78125 0.28125 1.140625 0.734375q0.375 0.4375 0.515625 1.109375q0.078125 0.421875 0.078125 1.515625l0 2.1875q0 2.28125 0.109375 2.890625q0.109375 0.59375 0.40625 1.15625l-1.703125 0q-0.265625 -0.515625 -0.328125 -1.1875zm-0.140625 -3.671875q-0.890625 0.375 -2.671875 0.625q-1.015625 0.140625 -1.4375 0.328125q-0.421875 0.1875 -0.65625 0.53125q-0.21875 0.34375 -0.21875 0.78125q0 0.65625 0.5 1.09375q0.5 0.4375 1.453125 0.4375q0.9375 0 1.671875 -0.40625q0.75 -0.421875 1.09375 -1.140625q0.265625 -0.5625 0.265625 -1.640625l0 -0.609375zm7.7819824 3.390625l0.234375 1.453125q-0.6875 0.140625 -1.234375 0.140625q-0.890625 0 -1.390625 -0.28125q-0.484375 -0.28125 -0.6875 -0.734375q-0.203125 -0.46875 -0.203125 -1.9375l0 -5.578125l-1.203125 0l0 -1.265625l1.203125 0l0 -2.390625l1.625 -0.984375l0 3.375l1.65625 0l0 1.265625l-1.65625 0l0 5.671875q0 0.6875 0.078125 0.890625q0.09375 0.203125 0.28125 0.328125q0.203125 0.109375 0.578125 0.109375q0.265625 0 0.71875 -0.0625zm0.9957886 -3.375q0 -2.6875 1.484375 -3.96875q1.25 -1.078125 3.046875 -1.078125q2.0 0 3.265625 1.3125q1.2656555 1.296875 1.2656555 3.609375q0 1.859375 -0.5625 2.9375q-0.5625305 1.0625 -1.6406555 1.65625q-1.0625 0.59375 -2.328125 0.59375q-2.03125 0 -3.28125 -1.296875q-1.25 -1.3125 -1.25 -3.765625zm1.6875 0q0 1.859375 0.796875 2.796875q0.8125 0.921875 2.046875 0.921875q1.21875 0 2.03125 -0.921875q0.8125 -0.9375 0.8125 -2.84375q0 -1.796875 -0.8125 -2.71875q-0.8125 -0.921875 -2.03125 -0.921875q-1.234375 0 -2.046875 0.921875q-0.796875 0.90625 -0.796875 2.765625zm9.281952 4.84375l0 -9.671875l1.46875 0l0 1.46875q0.5625 -1.03125 1.03125 -1.359375q0.484375 -0.328125 1.0625 -0.328125q0.828125 0 1.6875 0.53125l-0.5625 1.515625q-0.609375 -0.359375 -1.203125 -0.359375q-0.546875 0 -0.96875 0.328125q-0.421875 0.328125 -0.609375 0.890625q-0.28125 0.875 -0.28125 1.921875l0 5.0625l-1.625 0z" fill-rule="nonzero"/><path fill="#000000" fill-opacity="0.0" d="m80.20735 254.10258c9.430008 -14.518051 39.1706 -87.19992 56.580048 -87.10838c17.409454 0.091537476 39.8972 73.04802 47.876648 87.65762" fill-rule="evenodd"/><path stroke="#000000" stroke-width="1.0" stroke-linejoin="round" stroke-linecap="butt" d="m80.20735 254.10258c9.430008 -14.518051 39.1706 -87.19992 56.580048 -87.10838c17.409454 0.091537476 39.8972 73.04802 47.876648 87.65762" fill-rule="evenodd"/><path fill="#cfe2f3" d="m195.2441 221.3937l49.27559 0l0 -5.283478l10.566925 10.56694l-10.566925 10.566925l0 -5.2834625l-49.27559 0z" fill-rule="evenodd"/><path stroke="#000000" stroke-width="1.0" stroke-linejoin="round" stroke-linecap="butt" d="m195.2441 221.3937l49.27559 0l0 -5.283478l10.566925 10.56694l-10.566925 10.566925l0 -5.2834625l-49.27559 0z" fill-rule="evenodd"/><path fill="#fce5cd" d="m757.31494 171.96326l85.79529 0l0 110.04724l-85.79529 0z" fill-rule="evenodd"/><path stroke="#000000" stroke-width="1.0" stroke-linejoin="round" stroke-linecap="butt" d="m757.31494 171.96326l85.79529 0l0 110.04724l-85.79529 0z" fill-rule="evenodd"/><path fill="#000000" d="m783.23486 224.10187l0 -0.90625l4.9375 0l0 0.734375q-0.71875 0.765625 -1.4375 2.0625q-0.71875 1.28125 -1.109375 2.640625q-0.28125 0.953125 -0.359375 2.09375l-0.953125 0q0.015625 -0.90625 0.34375 -2.171875q0.34375 -1.28125 0.96875 -2.453125q0.640625 -1.1875 1.34375 -2.0l-3.734375 0zm7.3171387 2.484375q-0.59375 -0.203125 -0.875 -0.59375q-0.28125 -0.40625 -0.28125 -0.953125q0 -0.84375 0.59375 -1.40625q0.609375 -0.5625 1.59375 -0.5625q1.0 0 1.609375 0.578125q0.609375 0.578125 0.609375 1.40625q0 0.53125 -0.28125 0.9375q-0.265625 0.390625 -0.84375 0.59375q0.703125 0.234375 1.0625 0.75q0.375 0.5 0.375 1.203125q0 0.984375 -0.6875 1.65625q-0.6875 0.65625 -1.828125 0.65625q-1.125 0 -1.8125 -0.65625q-0.6875 -0.671875 -0.6875 -1.671875q0 -0.75 0.375 -1.25q0.375 -0.5 1.078125 -0.6875zm-0.1875 -1.578125q0 0.53125 0.34375 0.875q0.34375 0.34375 0.90625 0.34375q0.53125 0 0.875 -0.328125q0.359375 -0.34375 0.359375 -0.84375q0 -0.515625 -0.359375 -0.859375q-0.359375 -0.359375 -0.890625 -0.359375q-0.53125 0 -0.890625 0.34375q-0.34375 0.34375 -0.34375 0.828125zm-0.3125 3.515625q0 0.40625 0.1875 0.78125q0.203125 0.375 0.578125 0.578125q0.375 0.203125 0.796875 0.203125q0.671875 0 1.109375 -0.421875q0.4375 -0.4375 0.4375 -1.109375q0 -0.671875 -0.453125 -1.109375q-0.453125 -0.453125 -1.125 -0.453125q-0.65625 0 -1.09375 0.4375q-0.4375 0.4375 -0.4375 1.09375zm7.9733887 2.203125l0 -1.828125l-3.296875 0l0 -0.859375l3.46875 -4.9375l0.765625 0l0 4.9375l1.03125 0l0 0.859375l-1.03125 0l0 1.828125l-0.9375 0zm0 -2.6875l0 -3.4375l-2.375 3.4375l2.375 0zm5.527771 2.6875l2.015625 -2.875l-1.859375 -2.65625l1.171875 0l0.84375 1.296875q0.234375 0.375 0.390625 0.625q0.21875 -0.34375 0.40625 -0.609375l0.9375 -1.3125l1.125 0l-1.921875 2.609375l2.0625 2.921875l-1.15625 0l-1.125 -1.71875l-0.296875 -0.46875l-1.453125 2.1875l-1.140625 0zm12.179382 0l-0.9375 0l0 -5.96875q-0.34375 0.328125 -0.890625 0.65625q-0.546875 0.3125 -0.984375 0.46875l0 -0.90625q0.796875 -0.359375 1.375 -0.890625q0.59375 -0.53125 0.828125 -1.015625l0.609375 0l0 7.65625z" fill-rule="nonzero"/><path fill="#cfe2f3" d="m680.16534 221.3937l49.275574 0l0 -5.283478l10.566956 10.56694l-10.566956 10.566925l0 -5.2834625l-49.275574 0z" fill-rule="evenodd"/><path stroke="#000000" stroke-width="1.0" stroke-linejoin="round" stroke-linecap="butt" d="m680.16534 221.3937l49.275574 0l0 -5.283478l10.566956 10.56694l-10.566956 10.566925l0 -5.2834625l-49.275574 0z" fill-rule="evenodd"/><path fill="#cfe2f3" d="m802.2362 341.34647l0 216.82675l-40.724365 0l0 -10.181091l-20.362244 20.362183l20.362244 20.362244l0 -10.181091l61.08661 0l0 -237.189z" fill-rule="evenodd"/><path stroke="#000000" stroke-width="1.0" stroke-linejoin="round" stroke-linecap="butt" d="m802.2362 341.34647l0 216.82675l-40.724365 0l0 -10.181091l-20.362244 20.362183l20.362244 20.362244l0 -10.181091l61.08661 0l0 -237.189z" fill-rule="evenodd"/><path fill="#000000" fill-opacity="0.0" d="m124.35171 594.4042l-19.90551 -38.551147" fill-rule="evenodd"/><path stroke="#000000" stroke-width="1.0" stroke-linejoin="round" stroke-linecap="butt" d="m124.35171 594.4042l-17.152763 -33.21985" fill-rule="evenodd"/><path fill="#000000" stroke="#000000" stroke-width="1.0" stroke-linecap="butt" d="m108.66658 560.4265l-3.549675 -3.2745361l0.61439514 4.7901z" fill-rule="evenodd"/><path fill="#000000" fill-opacity="0.0" d="m95.12861 542.79724c3.7305374 -1.3468628 15.232719 -6.2161255 22.383202 -8.08136c7.150482 -1.8652954 13.783905 -2.7991943 20.519684 -3.1102295c6.735779 -0.31103516 14.713913 0.6220093 19.89502 1.2440796c5.1810913 0.6220703 7.253708 1.2445679 11.191589 2.4882202c3.9378967 1.2436523 10.363083 4.1447754 12.435699 4.973755" fill-rule="evenodd"/><path stroke="#000000" stroke-width="1.0" stroke-linejoin="round" stroke-linecap="butt" d="m95.12861 542.79724c3.7305374 -1.3468628 15.232719 -6.2161255 22.383202 -8.08136c7.150482 -1.8652954 13.783905 -2.7991943 20.519684 -3.1102295c6.735779 -0.31103516 14.713913 0.6220093 19.89502 1.2440796c5.1810913 0.6220703 7.253708 1.2445679 11.191589 2.4882202c3.9378967 1.2436523 10.363083 4.1447754 12.435699 4.973755" fill-rule="evenodd"/><path fill="#000000" fill-opacity="0.0" d="m80.20735 506.73752l19.90551 0l0 21.13388l-19.90551 0z" fill-rule="evenodd"/><path fill="#000000" d="m89.9886 527.0638q0 -2.359375 0.484375 -3.796875q0.484375 -1.453125 1.4375 -2.234375q0.96875 -0.78125 2.421875 -0.78125q1.078125 0 1.890625 0.4375q0.8125 0.421875 1.328125 1.25q0.53125 0.8125 0.828125 1.984375q0.3125 1.15625 0.3125 3.140625q0 2.359375 -0.484375 3.8125q-0.484375 1.4375 -1.453125 2.234375q-0.953125 0.78125 -2.421875 0.78125q-1.921875 0 -3.03125 -1.390625q-1.3125 -1.671875 -1.3125 -5.4375zm1.671875 0q0 3.296875 0.765625 4.390625q0.78125 1.078125 1.90625 1.078125q1.140625 0 1.90625 -1.09375q0.765625 -1.09375 0.765625 -4.375q0 -3.296875 -0.765625 -4.375q-0.765625 -1.078125 -1.921875 -1.078125q-1.125 0 -1.796875 0.953125q-0.859375 1.21875 -0.859375 4.5z" fill-rule="nonzero"/><path fill="#000000" fill-opacity="0.0" d="m176.58005 506.73752l22.992126 0l0 21.13388l-22.992126 0z" fill-rule="evenodd"/><path fill="#000000" d="m192.53317 533.65753l-1.640625 0l0 -10.453125q-0.59375 0.5625 -1.5625 1.140625q-0.953125 0.5625 -1.71875 0.84375l0 -1.59375q1.375 -0.640625 2.40625 -1.5625q1.03125 -0.921875 1.453125 -1.78125l1.0625 0l0 13.40625z" fill-rule="nonzero"/><path fill="#cfe2f3" d="m196.33333 571.3963l10.56694 -10.566895l0 5.2834473l49.275574 0l0 10.566956l-49.275574 0l0 5.2834473z" fill-rule="evenodd"/><path stroke="#000000" stroke-width="1.0" stroke-linejoin="round" stroke-linecap="butt" d="m196.33333 571.3963l10.56694 -10.566895l0 5.2834473l49.275574 0l0 10.566956l-49.275574 0l0 5.2834473z" fill-rule="evenodd"/><path fill="#cfe2f3" d="m365.2323 227.83202l26.456696 0l0 -2.8346558l5.669281 5.6692963l-5.669281 5.6692963l0 -2.8346558l-26.456696 0z" fill-rule="evenodd"/><path stroke="#000000" stroke-width="1.0" stroke-linejoin="round" stroke-linecap="butt" d="m365.2323 227.83202l26.456696 0l0 -2.8346558l5.669281 5.6692963l-5.669281 5.6692963l0 -2.8346558l-26.456696 0z" fill-rule="evenodd"/><path fill="#cfe2f3" d="m457.0853 227.83202l26.456696 0l0 -2.8346558l5.6693115 5.6692963l-5.6693115 5.6692963l0 -2.8346558l-26.456696 0z" fill-rule="evenodd"/><path stroke="#000000" stroke-width="1.0" stroke-linejoin="round" stroke-linecap="butt" d="m457.0853 227.83202l26.456696 0l0 -2.8346558l5.6693115 5.6692963l-5.6693115 5.6692963l0 -2.8346558l-26.456696 0z" fill-rule="evenodd"/><path fill="#cfe2f3" d="m544.89636 227.83202l26.456665 0l0 -2.8346558l5.6693115 5.6692963l-5.6693115 5.6692963l0 -2.8346558l-26.456665 0z" fill-rule="evenodd"/><path stroke="#000000" stroke-width="1.0" stroke-linejoin="round" stroke-linecap="butt" d="m544.89636 227.83202l26.456665 0l0 -2.8346558l5.6693115 5.6692963l-5.6693115 5.6692963l0 -2.8346558l-26.456665 0z" fill-rule="evenodd"/><path fill="#cfe2f3" d="m357.3149 561.1443l5.669281 -5.6692505l0 2.8346558l26.456696 0l0 5.6692505l-26.456696 0l0 2.8346558z" fill-rule="evenodd"/><path stroke="#000000" stroke-width="1.0" stroke-linejoin="round" stroke-linecap="butt" d="m357.3149 561.1443l5.669281 -5.6692505l0 2.8346558l26.456696 0l0 5.6692505l-26.456696 0l0 2.8346558z" fill-rule="evenodd"/><path fill="#cfe2f3" d="m450.32803 561.1443l5.669281 -5.6692505l0 2.8346558l26.456696 0l0 5.6692505l-26.456696 0l0 2.8346558z" fill-rule="evenodd"/><path stroke="#000000" stroke-width="1.0" stroke-linejoin="round" stroke-linecap="butt" d="m450.32803 561.1443l5.669281 -5.6692505l0 2.8346558l26.456696 0l0 5.6692505l-26.456696 0l0 2.8346558z" fill-rule="evenodd"/><path fill="#cfe2f3" d="m546.9868 561.1443l5.6693115 -5.6692505l0 2.8346558l26.456665 0l0 5.6692505l-26.456665 0l0 2.8346558z" fill-rule="evenodd"/><path stroke="#000000" stroke-width="1.0" stroke-linejoin="round" stroke-linecap="butt" d="m546.9868 561.1443l5.6693115 -5.6692505l0 2.8346558l26.456665 0l0 5.6692505l-26.456665 0l0 2.8346558z" fill-rule="evenodd"/></g></svg>